<?xml version="1.0" encoding="UTF-8" standalone="no" ?>
<!DOCTYPE svg PUBLIC "-//W3C//DTD SVG 1.1//EN" "http://www.w3.org/Graphics/SVG/1.1/DTD/svg11.dtd">
<svg xmlns="http://www.w3.org/2000/svg" xmlns:xlink="http://www.w3.org/1999/xlink" version="1.1" width="1280" height="1024" viewBox="0 0 1280 1024" xml:space="preserve">
<desc>Created with Fabric.js 5.3.0</desc>
<defs>
</defs>
<g transform="matrix(1 0 0 1 640 512)" id="background-logo"  >
<rect style="stroke: none; stroke-width: 0; stroke-dasharray: none; stroke-linecap: butt; stroke-dashoffset: 0; stroke-linejoin: miter; stroke-miterlimit: 4; fill: rgb(255,255,255); fill-opacity: 0; fill-rule: nonzero; opacity: 1;"  paint-order="stroke"  x="-640" y="-512" rx="0" ry="0" width="1280" height="1024" />
</g>
<g transform="matrix(1.9211538461538462 0 0 1.9211538461538462 639.5095247446976 406.4829490981328)" id="logo-logo"  >
<g style=""  paint-order="stroke"   >
		<g transform="matrix(0.1430819964371597 0 0 0.1430819964371597 0 0)"  >
<path style="stroke: none; stroke-width: 1; stroke-dasharray: none; stroke-linecap: butt; stroke-dashoffset: 0; stroke-linejoin: miter; stroke-miterlimit: 4; fill: rgb(249,255,255); fill-rule: nonzero; opacity: 1;"  paint-order="stroke"  transform=" translate(-1023.9373917644967, -1010.4344158286334)" d="M 1022.093 245.685 Q 1024.0349999999999 245.689 1025.9769999999999 245.69 C 1050.667 245.714 1075.243 245.85399999999998 1099.7959999999998 248.744 C 1102.1559999999997 249.021 1104.5199999999998 249.279 1106.8819999999998 249.536 C 1147.59 254.001 1187.5819999999999 261.486 1240.1449999999998 275.805 C 1244.774135078037 277.16740633957653 1249.3926079888884 278.5657819340204 1253.9999999999995 279.9999999999997 L 1255.098 280.34 C 1292.788 292.054 1330.0339999999999 306.46 1366.086 324.996 L 1367.008 325.472 C 1369.670350066239 326.8338826546559 1372.3471693922231 328.167292032481 1375.038 329.4719999999999 C 1411.147 347.154 1445.192 368.679 1477.673 392.32899999999995 C 1490.163 401.46099999999996 1502.343 410.96099999999996 1514.297 420.78299999999996 C 1516.2221754699633 422.36410966148117 1518.1545287705019 423.9364592420643 1520.094 425.49999999999994 C 1525.4201540273032 429.80720161913433 1530.6164708600534 434.272525864451 1535.676 438.8899999999997 C 1537.7190381419532 440.74449315991234 1539.785538001296 442.5729738388115 1541.8750000000002 444.375 C 1550.2492458313545 451.6674257085608 1558.3482233284433 459.2700573030273 1566.1550000000002 467.1669999999999 C 1569.4830000000002 470.5329999999999 1572.8100000000002 473.8289999999999 1576.438 476.87499999999994 C 1579.3280000000002 479.30499999999995 1581.7830000000001 481.92499999999995 1584.217 484.80999999999995 C 1586.6670000000001 487.69199999999995 1589.304 490.34799999999996 1592 492.99999999999994 C 1595.833 496.78799999999995 1599.469 500.6619999999999 1602.954 504.7699999999999 C 1604.2020508936514 506.23433286718284 1605.4543896025593 507.695005803684 1606.7110000000002 509.15200000000044 Q 1610.206 513.2159999999999 1613.686 517.294 Q 1615.879 519.8629999999999 1618.089 522.417 C 1625.203 530.645 1631.8529999999998 539.183 1638.395 547.871 Q 1640.321 550.4259999999999 1642.263 552.971 C 1668.512 587.4 1691.668 624.435 1711.5459999999998 662.893 C 1720.3429999999998 679.967 1728.6539999999998 697.246 1735.9999999999998 715 L 1736.6569999999997 716.587 C 1740.2649999999996 725.33 1743.6899999999996 734.14 1746.9999999999998 743 L 1747.3819999999998 744.02 C 1761.4879999999998 781.8 1772.9309999999998 820.636 1782.6749999999997 869.677 C 1787.4949999999997 895.753 1790.5879999999997 921.933 1792.7029999999997 948.351 Q 1792.9719999999998 951.73 1793.2829999999997 955.106 C 1794.0029999999997 962.956 1794.3119999999997 970.806 1794.5329999999997 978.684 Q 1794.5769999999998 980.313 1794.6259999999997 981.942 C 1794.9829999999997 994.432 1795.2099999999998 1006.914 1795.0229999999997 1019.41 Q 1794.9879999999996 1021.8919999999999 1794.9619999999998 1024.375 C 1794.5049999999997 1061.011 1791.2469999999998 1097.798 1785.1789999999999 1133.931 Q 1784.907 1135.551 1784.639 1137.173 C 1778.8329999999999 1172.002 1770.7569999999998 1206.756 1759.577 1240.265 C 1759.0604307433553 1241.818377032575 1758.5477624607822 1243.3730485994934 1758.0389999999998 1244.9290000000005 C 1746.445 1280.2910000000002 1732.579 1314.7730000000001 1705.911 1367.624 C 1694.049 1389.744 1680.885 1411.474 1666.606 1432.123 Q 1665.562 1433.636 1664.523 1435.152 C 1652.8729999999998 1452.105 1640.495 1468.354 1627.4399999999998 1484.2440000000001 C 1626.1564364384194 1485.809128685155 1624.8784283991029 1487.3788052258803 1623.6059999999995 1488.9530000000004 C 1614.610375945219 1500.0661923593818 1605.239633206172 1510.8704292717073 1595.5099999999998 1521.3470000000002 C 1594.423143159012 1522.531187245903 1593.3530368029703 1523.7306397907746 1592.2999999999997 1524.9450000000002 C 1585.0329999999997 1533.2400000000002 1577.1849999999997 1540.967 1569.3799999999997 1548.7510000000002 Q 1566.3209999999997 1551.8010000000002 1563.2719999999997 1554.861 Q 1560.8809999999996 1557.257 1558.4869999999996 1559.6470000000002 L 1556.2369999999996 1561.8990000000001 C 1551.6142801279814 1566.541085166529 1546.8122985300686 1571.0011403220753 1541.8419999999996 1575.269 C 1540.1769999999997 1576.714 1538.5649999999996 1578.217 1536.9459999999997 1579.713 C 1532.5414390987396 1583.7865340168044 1527.9987812821169 1587.7081618147377 1523.3259999999998 1591.471 C 1520.7623540416494 1593.5342469101295 1518.2392072321315 1595.647315683745 1515.7579999999998 1597.809 C 1508.1369999999997 1604.462 1500.312 1610.694 1492.1529999999998 1616.676 C 1490.0730864677794 1618.2028634968453 1488.0063433648438 1619.7475872934588 1485.9529999999995 1621.3100000000002 C 1457.1589999999997 1643.21 1426.2449999999997 1662.69 1394.5789999999997 1680.1299999999999 L 1391.3709999999996 1681.8999999999999 C 1374.1449999999995 1691.425 1356.7169999999996 1700.2179999999998 1338.7269999999996 1708.2299999999998 Q 1336.1679999999997 1709.3709999999999 1333.6129999999996 1710.5179999999998 C 1303.8729999999996 1723.8079999999998 1273.2789999999995 1734.9279999999999 1241.9999999999995 1743.9999999999998 L 1240.9229999999995 1744.3129999999999 C 1203.0689999999995 1755.2969999999998 1164.6099999999994 1763.347 1100.6349999999995 1771.6129999999998 C 1096.8583269913936 1772.0189210291555 1093.0799601069825 1772.4089244923016 1089.2999999999993 1772.783 C 1067.4749999999995 1774.888 1045.5989999999995 1775.2079999999999 1023.6879999999995 1775.1879999999999 L 1021.7619999999995 1775.187 C 1001.4309999999995 1775.176 981.2519999999995 1774.906 960.9999999999995 1773 L 958.9289999999995 1772.809 C 919.3539999999995 1769.139 880.0809999999996 1762.814 819.7549999999995 1748.186 C 804.3549999999996 1743.952 789.1509999999995 1739.043 773.9999999999995 1734 L 772.9959999999995 1733.667 C 742.7859999999995 1723.6319999999998 713.6839999999995 1710.745 684.9999999999995 1697 L 683.5849999999996 1696.324 C 670.7369999999996 1690.1770000000001 658.3239999999996 1683.364 645.9769999999996 1676.2720000000002 C 643.2547456004819 1674.7075091683937 640.5162636174538 1673.1714257870435 637.7619999999996 1671.6640000000002 C 619.4509999999996 1661.6340000000002 602.0919999999996 1649.9630000000002 584.9999999999995 1638.0000000000002 L 584.0219999999996 1637.3160000000003 C 564.1669999999996 1623.4260000000002 544.6519999999996 1608.8010000000002 526.2999999999996 1592.9720000000002 C 524.4942044087234 1591.420236916631 522.6741269093482 1589.885171553147 520.8399999999996 1588.3670000000002 C 514.2089999999996 1582.8540000000003 507.8149999999996 1577.1370000000002 501.54999999999956 1571.2100000000003 Q 500.67699999999957 1570.3820000000003 499.79999999999956 1569.5550000000003 C 499.50399999999956 1569.2740000000003 499.20699999999954 1568.9920000000002 498.8999999999996 1568.7030000000002 Q 496.36699999999956 1566.3170000000002 493.76399999999956 1564.0090000000002 C 487.26399999999956 1558.2490000000003 481.07399999999956 1552.2310000000002 474.94899999999956 1546.0790000000002 Q 472.89599999999956 1544.0200000000002 470.8349999999996 1541.9690000000003 C 465.2719999999996 1536.4250000000002 459.8349999999996 1530.8370000000002 454.73999999999955 1524.8540000000003 C 453.5299999999996 1523.4580000000003 452.27199999999954 1522.1090000000004 451.0079999999995 1520.7620000000002 L 450.2899999999995 1519.996 L 448.8589999999995 1518.471 C 444.53599999999955 1513.857 440.38199999999955 1509.158 436.4249999999995 1504.221 C 434.4121932232401 1501.7056705932202 432.3480939499519 1499.2318187748067 430.23399999999947 1496.801 C 423.3069999999995 1488.855 416.79799999999955 1480.673 410.45899999999955 1472.251 C 408.58500375855704 1469.767743647277 406.69228313407564 1467.2986732588424 404.7809999999994 1464.844 C 392.6139999999996 1449.169 381.2989999999995 1432.913 370.71399999999954 1416.13 Q 369.60399999999953 1414.375 368.48999999999955 1412.625 C 359.44699999999955 1398.385 351.03399999999954 1383.831 342.99999999999955 1369 L 342.12899999999956 1367.393 C 320.96899999999954 1328.275 303.77399999999955 1287.0810000000001 289.2919999999996 1243.882 C 277.11199999999957 1207.057 268.54799999999955 1169.199 261.99999999999955 1131 L 261.8229999999995 1129.97 C 259.06999999999954 1113.897 257.3829999999995 1097.724 255.81299999999953 1081.5 L 255.68299999999954 1080.166 C 253.43699999999953 1057.086 252.81099999999952 1034.146 252.81499999999954 1010.9699999999999 Q 252.81499999999954 1007.0939999999999 252.79399999999956 1003.2169999999999 C 252.70099999999957 983.0499999999998 253.29699999999954 963.1069999999999 254.99999999999955 942.9999999999999 L 255.11499999999955 941.6269999999998 C 255.52999999999955 936.6849999999998 256.00899999999956 931.7539999999998 256.57199999999955 926.8269999999999 L 256.93199999999956 923.6359999999999 C 260.3039999999996 893.8409999999999 265.22799999999955 864.1339999999999 272.49199999999956 835.0359999999998 C 272.9359999999996 833.2609999999999 273.37199999999956 831.4849999999998 273.80999999999955 829.7079999999999 C 279.45599999999956 806.7379999999998 286.16399999999953 784.2679999999998 293.97299999999956 761.9429999999999 Q 295.09599999999955 758.7279999999998 296.1979999999996 755.5079999999999 C 306.9959999999996 723.9739999999999 320.27099999999956 692.833 336.1229999999996 663.5129999999999 C 337.6094064142545 660.741401016221 339.05953022363934 657.950496066297 340.4729999999997 655.141 C 347.9259999999996 640.4509999999999 356.4229999999996 626.4699999999999 365.0889999999996 612.476 C 366.1173038111658 610.8077151042213 367.1406416740268 609.1363743731509 368.1589999999994 607.462 C 382.2359999999996 584.341 398.01099999999957 562.0699999999999 414.99899999999957 541 L 416.1689999999996 539.546 C 420.9959999999996 533.561 425.93899999999957 527.6790000000001 430.9249999999996 521.826 C 433.02999999999963 519.3530000000001 435.11899999999963 516.874 437.1369999999996 514.328 C 441.8669999999996 508.368 446.9069999999996 502.78299999999996 452.1249999999996 497.25 L 453.1489999999996 496.164 C 456.5639999999996 492.548 460.0109999999996 488.974 463.5549999999996 485.484 C 465.97699999999963 483.09799999999996 468.2339999999996 480.616 470.44099999999963 478.031 C 474.00099999999964 473.88 477.91099999999966 470.19100000000003 481.93799999999965 466.5 Q 484.06299999999965 464.534 486.1839999999996 462.563 L 487.20999999999964 461.61 C 489.696577569897 459.29871115621916 492.1272785935729 456.9280274417698 494.4999999999996 454.50000000000006 C 497.15899999999965 451.79 499.91799999999967 449.252 502.79799999999966 446.779 C 505.2076952622393 444.6952372108708 507.5820336936947 442.5709344187851 509.9199999999996 440.407 C 515.2569999999997 435.496 520.7449999999997 430.837 526.3969999999997 426.294 C 528.2039999999997 424.839 529.9969999999997 423.36899999999997 531.7929999999997 421.899 C 539.5119999999997 415.582 547.2719999999997 409.332 555.2399999999997 403.329 C 556.4407791659282 402.42341476272793 557.6374580620928 401.51240545263937 558.8299999999995 400.59600000000006 C 583.0999999999997 381.972 609.0569999999997 365.08 635.5649999999997 349.829 C 636.990702617842 349.00440956693626 638.4140417832044 348.17573950485405 639.8349999999997 347.343 C 676.1419999999997 326.127 714.4029999999997 308.32 753.8129999999996 293.688 C 758.1929999999996 292.082 762.5949999999997 290.536 766.9999999999997 289 L 768.8529999999996 288.35 C 806.7159999999997 275.07300000000004 845.1389999999997 265.16900000000004 905.2019999999995 254.11300000000003 C 916.1819999999996 252.32300000000004 927.1909999999996 250.88300000000004 938.2499999999995 249.68800000000002 L 939.3139999999995 249.57100000000003 C 944.4183891845914 249.02169190508462 949.5294565039377 248.5363205238579 954.6459999999997 248.115 Q 956.8149999999995 247.92900000000003 958.9839999999995 247.73900000000003 C 980.0299999999995 245.91900000000004 1000.9839999999995 245.63600000000002 1022.0929999999995 245.68500000000003" stroke-linecap="round" />
</g>
		<g transform="matrix(0.1430819964371597 0 0 0.1430819964371597 0 0)"  >
<path style="stroke: none; stroke-width: 1; stroke-dasharray: none; stroke-linecap: butt; stroke-dashoffset: 0; stroke-linejoin: miter; stroke-miterlimit: 4; fill: rgb(21,36,60); fill-rule: nonzero; opacity: 1;"  paint-order="stroke"  transform=" translate(-1023.9373917644967, -1010.4344158286334)" d="M 1022.093 245.685 Q 1024.0349999999999 245.689 1025.9769999999999 245.69 C 1050.667 245.714 1075.243 245.85399999999998 1099.7959999999998 248.744 C 1102.1559999999997 249.021 1104.5199999999998 249.279 1106.8819999999998 249.536 C 1147.59 254.001 1187.5819999999999 261.486 1240.1449999999998 275.805 C 1244.774135078037 277.16740633957653 1249.3926079888884 278.5657819340204 1253.9999999999995 279.9999999999997 L 1255.098 280.34 C 1292.788 292.054 1330.0339999999999 306.46 1366.086 324.996 L 1367.008 325.472 C 1369.670350066239 326.8338826546559 1372.3471693922231 328.167292032481 1375.038 329.4719999999999 C 1411.147 347.154 1445.192 368.679 1477.673 392.32899999999995 C 1490.163 401.46099999999996 1502.343 410.96099999999996 1514.297 420.78299999999996 C 1516.2221754699633 422.36410966148117 1518.1545287705019 423.9364592420643 1520.094 425.49999999999994 C 1525.4201540273032 429.80720161913433 1530.6164708600534 434.272525864451 1535.676 438.8899999999997 C 1537.7190381419532 440.74449315991234 1539.785538001296 442.5729738388115 1541.8750000000002 444.375 C 1550.2492458313545 451.6674257085608 1558.3482233284433 459.2700573030273 1566.1550000000002 467.1669999999999 C 1569.4830000000002 470.5329999999999 1572.8100000000002 473.8289999999999 1576.438 476.87499999999994 C 1579.3280000000002 479.30499999999995 1581.7830000000001 481.92499999999995 1584.217 484.80999999999995 C 1586.6670000000001 487.69199999999995 1589.304 490.34799999999996 1592 492.99999999999994 C 1595.833 496.78799999999995 1599.469 500.6619999999999 1602.954 504.7699999999999 C 1604.2020508936514 506.23433286718284 1605.4543896025593 507.695005803684 1606.7110000000002 509.15200000000044 Q 1610.206 513.2159999999999 1613.686 517.294 Q 1615.879 519.8629999999999 1618.089 522.417 C 1625.203 530.645 1631.8529999999998 539.183 1638.395 547.871 Q 1640.321 550.4259999999999 1642.263 552.971 C 1668.512 587.4 1691.668 624.435 1711.5459999999998 662.893 C 1720.3429999999998 679.967 1728.6539999999998 697.246 1735.9999999999998 715 L 1736.6569999999997 716.587 C 1740.2649999999996 725.33 1743.6899999999996 734.14 1746.9999999999998 743 L 1747.3819999999998 744.02 C 1761.4879999999998 781.8 1772.9309999999998 820.636 1782.6749999999997 869.677 C 1787.4949999999997 895.753 1790.5879999999997 921.933 1792.7029999999997 948.351 Q 1792.9719999999998 951.73 1793.2829999999997 955.106 C 1794.0029999999997 962.956 1794.3119999999997 970.806 1794.5329999999997 978.684 Q 1794.5769999999998 980.313 1794.6259999999997 981.942 C 1794.9829999999997 994.432 1795.2099999999998 1006.914 1795.0229999999997 1019.41 Q 1794.9879999999996 1021.8919999999999 1794.9619999999998 1024.375 C 1794.5049999999997 1061.011 1791.2469999999998 1097.798 1785.1789999999999 1133.931 Q 1784.907 1135.551 1784.639 1137.173 C 1778.8329999999999 1172.002 1770.7569999999998 1206.756 1759.577 1240.265 C 1759.0604307433553 1241.818377032575 1758.5477624607822 1243.3730485994934 1758.0389999999998 1244.9290000000005 C 1746.445 1280.2910000000002 1732.579 1314.7730000000001 1705.911 1367.624 C 1694.049 1389.744 1680.885 1411.474 1666.606 1432.123 Q 1665.562 1433.636 1664.523 1435.152 C 1652.8729999999998 1452.105 1640.495 1468.354 1627.4399999999998 1484.2440000000001 C 1626.1564364384194 1485.809128685155 1624.8784283991029 1487.3788052258803 1623.6059999999995 1488.9530000000004 C 1614.610375945219 1500.0661923593818 1605.239633206172 1510.8704292717073 1595.5099999999998 1521.3470000000002 C 1594.423143159012 1522.531187245903 1593.3530368029703 1523.7306397907746 1592.2999999999997 1524.9450000000002 C 1585.0329999999997 1533.2400000000002 1577.1849999999997 1540.967 1569.3799999999997 1548.7510000000002 Q 1566.3209999999997 1551.8010000000002 1563.2719999999997 1554.861 Q 1560.8809999999996 1557.257 1558.4869999999996 1559.6470000000002 L 1556.2369999999996 1561.8990000000001 C 1551.6142801279814 1566.541085166529 1546.8122985300686 1571.0011403220753 1541.8419999999996 1575.269 C 1540.1769999999997 1576.714 1538.5649999999996 1578.217 1536.9459999999997 1579.713 C 1532.5414390987396 1583.7865340168044 1527.9987812821169 1587.7081618147377 1523.3259999999998 1591.471 C 1520.7623540416494 1593.5342469101295 1518.2392072321315 1595.647315683745 1515.7579999999998 1597.809 C 1508.1369999999997 1604.462 1500.312 1610.694 1492.1529999999998 1616.676 C 1490.0730864677794 1618.2028634968453 1488.0063433648438 1619.7475872934588 1485.9529999999995 1621.3100000000002 C 1457.1589999999997 1643.21 1426.2449999999997 1662.69 1394.5789999999997 1680.1299999999999 L 1391.3709999999996 1681.8999999999999 C 1374.1449999999995 1691.425 1356.7169999999996 1700.2179999999998 1338.7269999999996 1708.2299999999998 Q 1336.1679999999997 1709.3709999999999 1333.6129999999996 1710.5179999999998 C 1303.8729999999996 1723.8079999999998 1273.2789999999995 1734.9279999999999 1241.9999999999995 1743.9999999999998 L 1240.9229999999995 1744.3129999999999 C 1203.0689999999995 1755.2969999999998 1164.6099999999994 1763.347 1100.6349999999995 1771.6129999999998 C 1096.8583269913936 1772.0189210291555 1093.0799601069825 1772.4089244923016 1089.2999999999993 1772.783 C 1067.4749999999995 1774.888 1045.5989999999995 1775.2079999999999 1023.6879999999995 1775.1879999999999 L 1021.7619999999995 1775.187 C 1001.4309999999995 1775.176 981.2519999999995 1774.906 960.9999999999995 1773 L 958.9289999999995 1772.809 C 919.3539999999995 1769.139 880.0809999999996 1762.814 819.7549999999995 1748.186 C 804.3549999999996 1743.952 789.1509999999995 1739.043 773.9999999999995 1734 L 772.9959999999995 1733.667 C 742.7859999999995 1723.6319999999998 713.6839999999995 1710.745 684.9999999999995 1697 L 683.5849999999996 1696.324 C 670.7369999999996 1690.1770000000001 658.3239999999996 1683.364 645.9769999999996 1676.2720000000002 C 643.2547456004819 1674.7075091683937 640.5162636174538 1673.1714257870435 637.7619999999996 1671.6640000000002 C 619.4509999999996 1661.6340000000002 602.0919999999996 1649.9630000000002 584.9999999999995 1638.0000000000002 L 584.0219999999996 1637.3160000000003 C 564.1669999999996 1623.4260000000002 544.6519999999996 1608.8010000000002 526.2999999999996 1592.9720000000002 C 524.4942044087234 1591.420236916631 522.6741269093482 1589.885171553147 520.8399999999996 1588.3670000000002 C 514.2089999999996 1582.8540000000003 507.8149999999996 1577.1370000000002 501.54999999999956 1571.2100000000003 Q 500.67699999999957 1570.3820000000003 499.79999999999956 1569.5550000000003 C 499.50399999999956 1569.2740000000003 499.20699999999954 1568.9920000000002 498.8999999999996 1568.7030000000002 Q 496.36699999999956 1566.3170000000002 493.76399999999956 1564.0090000000002 C 487.26399999999956 1558.2490000000003 481.07399999999956 1552.2310000000002 474.94899999999956 1546.0790000000002 Q 472.89599999999956 1544.0200000000002 470.8349999999996 1541.9690000000003 C 465.2719999999996 1536.4250000000002 459.8349999999996 1530.8370000000002 454.73999999999955 1524.8540000000003 C 453.5299999999996 1523.4580000000003 452.27199999999954 1522.1090000000004 451.0079999999995 1520.7620000000002 L 450.2899999999995 1519.996 L 448.8589999999995 1518.471 C 444.53599999999955 1513.857 440.38199999999955 1509.158 436.4249999999995 1504.221 C 434.4121932232401 1501.7056705932202 432.3480939499519 1499.2318187748067 430.23399999999947 1496.801 C 423.3069999999995 1488.855 416.79799999999955 1480.673 410.45899999999955 1472.251 C 408.58500375855704 1469.767743647277 406.69228313407564 1467.2986732588424 404.7809999999994 1464.844 C 392.6139999999996 1449.169 381.2989999999995 1432.913 370.71399999999954 1416.13 Q 369.60399999999953 1414.375 368.48999999999955 1412.625 C 359.44699999999955 1398.385 351.03399999999954 1383.831 342.99999999999955 1369 L 342.12899999999956 1367.393 C 320.96899999999954 1328.275 303.77399999999955 1287.0810000000001 289.2919999999996 1243.882 C 277.11199999999957 1207.057 268.54799999999955 1169.199 261.99999999999955 1131 L 261.8229999999995 1129.97 C 259.06999999999954 1113.897 257.3829999999995 1097.724 255.81299999999953 1081.5 L 255.68299999999954 1080.166 C 253.43699999999953 1057.086 252.81099999999952 1034.146 252.81499999999954 1010.9699999999999 Q 252.81499999999954 1007.0939999999999 252.79399999999956 1003.2169999999999 C 252.70099999999957 983.0499999999998 253.29699999999954 963.1069999999999 254.99999999999955 942.9999999999999 L 255.11499999999955 941.6269999999998 C 255.52999999999955 936.6849999999998 256.00899999999956 931.7539999999998 256.57199999999955 926.8269999999999 L 256.93199999999956 923.6359999999999 C 260.3039999999996 893.8409999999999 265.22799999999955 864.1339999999999 272.49199999999956 835.0359999999998 C 272.9359999999996 833.2609999999999 273.37199999999956 831.4849999999998 273.80999999999955 829.7079999999999 C 279.45599999999956 806.7379999999998 286.16399999999953 784.2679999999998 293.97299999999956 761.9429999999999 Q 295.09599999999955 758.7279999999998 296.1979999999996 755.5079999999999 C 306.9959999999996 723.9739999999999 320.27099999999956 692.833 336.1229999999996 663.5129999999999 C 337.6094064142545 660.741401016221 339.05953022363934 657.950496066297 340.4729999999997 655.141 C 347.9259999999996 640.4509999999999 356.4229999999996 626.4699999999999 365.0889999999996 612.476 C 366.1173038111658 610.8077151042213 367.1406416740268 609.1363743731509 368.1589999999994 607.462 C 382.2359999999996 584.341 398.01099999999957 562.0699999999999 414.99899999999957 541 L 416.1689999999996 539.546 C 420.9959999999996 533.561 425.93899999999957 527.6790000000001 430.9249999999996 521.826 C 433.02999999999963 519.3530000000001 435.11899999999963 516.874 437.1369999999996 514.328 C 441.8669999999996 508.368 446.9069999999996 502.78299999999996 452.1249999999996 497.25 L 453.1489999999996 496.164 C 456.5639999999996 492.548 460.0109999999996 488.974 463.5549999999996 485.484 C 465.97699999999963 483.09799999999996 468.2339999999996 480.616 470.44099999999963 478.031 C 474.00099999999964 473.88 477.91099999999966 470.19100000000003 481.93799999999965 466.5 Q 484.06299999999965 464.534 486.1839999999996 462.563 L 487.20999999999964 461.61 C 489.696577569897 459.29871115621916 492.1272785935729 456.9280274417698 494.4999999999996 454.50000000000006 C 497.15899999999965 451.79 499.91799999999967 449.252 502.79799999999966 446.779 C 505.2076952622393 444.6952372108708 507.5820336936947 442.5709344187851 509.9199999999996 440.407 C 515.2569999999997 435.496 520.7449999999997 430.837 526.3969999999997 426.294 C 528.2039999999997 424.839 529.9969999999997 423.36899999999997 531.7929999999997 421.899 C 539.5119999999997 415.582 547.2719999999997 409.332 555.2399999999997 403.329 C 556.4407791659282 402.42341476272793 557.6374580620928 401.51240545263937 558.8299999999995 400.59600000000006 C 583.0999999999997 381.972 609.0569999999997 365.08 635.5649999999997 349.829 C 636.990702617842 349.00440956693626 638.4140417832044 348.17573950485405 639.8349999999997 347.343 C 676.1419999999997 326.127 714.4029999999997 308.32 753.8129999999996 293.688 C 758.1929999999996 292.082 762.5949999999997 290.536 766.9999999999997 289 L 768.8529999999996 288.35 C 806.7159999999997 275.07300000000004 845.1389999999997 265.16900000000004 905.2019999999995 254.11300000000003 C 916.1819999999996 252.32300000000004 927.1909999999996 250.88300000000004 938.2499999999995 249.68800000000002 L 939.3139999999995 249.57100000000003 C 944.4183891845914 249.02169190508462 949.5294565039377 248.5363205238579 954.6459999999997 248.115 Q 956.8149999999995 247.92900000000003 958.9839999999995 247.73900000000003 C 980.0299999999995 245.91900000000004 1000.9839999999995 245.63600000000002 1022.0929999999995 245.68500000000003 M 962 313 L 960.603 313.118 C 955.53 313.55 950.467 314.051 945.4079999999999 314.632 L 942.161 315 C 924.661 316.983 907.3149999999999 319.797 890 323 L 888.919 323.199 C 851.231 330.149 814.607 340.538 770.943 356.406 C 737.3199999999999 368.994 704.087 384.06600000000003 673.125 402.313 C 670.285 403.99899999999997 667.457 405.703 664.632 407.41499999999996 C 662.1258305685865 408.92348803265895 659.6050446111009 410.4075582631174 657.0699999999999 411.86699999999996 C 635.48 424.417 614.839 438.853 595 454 L 594.02 454.748 C 586.7473142351796 460.30747877593797 579.6305659912761 466.0680366389983 572.6779999999999 472.02300000000014 C 569.8077439437529 474.48423034208383 566.895652429361 476.89624890036947 563.943 479.2579999999999 C 558.193 483.858 552.817 488.798 547.477 493.865 L 545.6759999999999 495.57 L 544.8259999999999 496.37399999999997 C 543.0059400266836 498.0851752388199 541.1467822092299 499.7542828489656 539.2499999999999 501.38 C 534.5619999999999 505.406 530.1689999999999 509.68399999999997 525.8089999999999 514.059 L 523.5389999999999 516.3249999999999 C 521.967332992605 517.8963337349834 520.3966660079581 519.4686673866344 518.8269999999981 521.0420000000018 C 516.8382501492024 523.0362491296504 514.8462474972304 525.0272517802916 512.851 527.0150000000003 C 511.2924169632222 528.5710831282662 509.7350831282658 530.1284169632218 508.1789999999994 531.6869999999994 Q 507.07899999999984 532.7879999999999 505.97799999999984 533.8859999999999 C 501.3911413771939 538.450175442941 496.9854090173182 543.1928344086677 492.77099999999984 548.1029999999998 C 491.7405128280965 549.2977055149281 490.7038322001209 550.4870548656088 489.66099999999994 551.6709999999998 C 476.64399999999983 566.4969999999998 464.25599999999986 581.6629999999998 452.6979999999998 597.6579999999998 C 451.3275350322869 599.5492978597322 449.94751739733135 601.4336552728732 448.5579999999998 603.3109999999997 C 429.9959999999998 628.4259999999998 413.4239999999998 655.1679999999998 398.69399999999985 682.7029999999997 Q 397.96599999999984 684.0629999999998 397.2359999999998 685.4219999999998 C 379.4209999999998 718.5719999999998 364.5339999999998 753.0779999999997 352.6959999999998 788.8139999999999 C 351.92570609692694 791.1553767392533 351.16037104770396 793.4983819922977 350.4 795.843 C 343.0159999999998 818.5969999999999 337.0489999999998 841.6189999999998 331.99999999999983 864.9999999999999 L 331.77299999999985 866.0519999999999 C 324.34099999999984 900.5339999999999 319.20499999999987 936.252 317.86299999999983 971.511 C 316.47599999999983 1008.8399999999999 317.0369999999998 1045.844 320.99999999999983 1083 L 321.1229999999998 1084.158 C 325.4909999999998 1125.288 333.64099999999985 1165.8519999999999 345.0289999999998 1205.6209999999999 C 354.5659999999998 1238.6699999999998 366.60499999999985 1271.117 381.59599999999983 1302.0839999999998 C 383.0080247956813 1305.0195577057837 384.39806371005864 1307.965640181867 385.7659999999997 1310.9219999999996 C 392.19961219605733 1324.7182628108585 399.2224082952501 1338.2320322631697 406.8149999999998 1351.4259999999995 C 421.6209999999998 1377.2709999999997 438.16999999999985 1402.4059999999997 456.28099999999984 1426.0579999999998 Q 457.34599999999983 1427.4529999999997 458.40299999999985 1428.8539999999998 C 464.09144662059043 1436.3750985279564 469.95878765967745 1443.7592057423465 476.0000000000001 1451.0000000000005 L 477.285 1452.546 C 482.71200000000005 1459.074 488.249 1465.4750000000001 494.033 1471.691 C 496.1830511486287 1473.9921934008516 498.28778874712265 1476.3353101190862 500.3460000000001 1478.719 C 504.204 1483.193 508.272 1487.404 512.465 1491.563 L 514.52 1493.613 Q 517.183 1496.268 519.85 1498.92 Q 522.589 1501.643 525.322 1504.3700000000001 Q 530.657 1509.69 536 1515.0000000000002 L 541 1515.0000000000002 L 541.375 1513.7480000000003 C 553.321 1473.9040000000002 566.929 1435.1510000000003 593.193 1375.7500000000002 Q 594.4209999999999 1373.0850000000003 595.646 1370.4180000000001 C 602.365 1355.8010000000002 609.276 1341.2800000000002 616.313 1326.813 L 616.8489999999999 1325.708 C 620.4589169682768 1318.2785060927345 624.0869277338044 1310.8578174063905 627.732999999999 1303.4460000000026 C 645.9309999999999 1266.486 662.9179999999999 1229.1060000000002 674.4649999999999 1189.4460000000001 C 677.7269999999999 1178.066 680.4929999999999 1166.5690000000002 682.9999999999999 1155.0000000000002 L 683.3499999999999 1153.3900000000003 C 685.0919999999999 1145.3060000000003 686.54 1137.1830000000002 687.838 1129.0160000000003 L 688.336 1125.9080000000004 C 691.6510000000001 1105.1780000000003 693.9590000000001 1084.3640000000003 695.7620000000001 1063.4530000000004 L 695.8750000000001 1062.1400000000003 C 696.6700000000001 1052.9170000000004 697.4410000000001 1043.6920000000002 698.1750000000001 1034.4640000000004 C 700.5770000000001 1004.3370000000004 703.4090000000001 974.0840000000004 709.1680000000001 944.3840000000004 Q 709.4960000000001 942.6830000000003 709.8170000000001 940.9820000000003 C 715.4740000000002 911.1820000000004 723.9020000000002 882.4420000000003 734.5220000000002 854.0460000000003 C 742.5690000000002 832.9230000000002 753.1840000000002 812.1720000000003 764.7120000000002 792.7590000000002 C 768.5900000000003 786.3070000000002 772.8160000000003 780.1270000000003 777.2440000000003 774.0420000000003 C 778.0477228769458 772.9320147869475 778.8477273603725 771.819341884582 779.6440000000002 770.7040000000004 C 787.0710000000003 760.3300000000003 794.7440000000003 750.2940000000003 803.2770000000003 740.8040000000003 Q 804.3540000000003 739.6040000000003 805.4270000000002 738.4020000000003 C 811.5010000000002 731.6140000000003 817.8240000000003 725.0800000000003 824.2500000000002 718.6250000000002 L 825.2450000000002 717.6220000000002 C 838.7250000000003 704.0580000000002 853.8990000000002 692.1320000000002 869.5080000000003 681.1210000000002 C 883.162 671.55 897.362 662.977 912 655 L 913.284 654.298 C 932.209 643.988 952.324 635.895 972.737 629.032 C 993.701 622.129 1015.3209999999999 617.5020000000001 1037.09 613.9720000000001 L 1038.283 613.777 C 1047.1689999999999 612.3950000000001 1056.1589999999999 611.6610000000001 1065.1209999999999 610.984 L 1066.8509999999999 610.8530000000001 C 1076.5529999999999 610.133 1086.253 609.7270000000001 1095.9769999999999 609.4730000000001 C 1096.3159999999998 609.4630000000001 1096.6539999999998 609.455 1097.004 609.446 C 1103.2609631131954 609.2803313951086 1109.518314430597 609.1296642954134 1115.7759999999976 608.9939999999993 C 1136.4729999999997 608.544 1157.0199999999998 607.649 1177.388 603.6320000000001 C 1180.962 602.9000000000001 1184.4879999999998 601.984 1188 601.0000000000001 L 1189.022 600.7160000000001 C 1195.425 598.9100000000001 1201.6109999999999 596.6420000000002 1207.6119999999999 593.7650000000001 C 1219.9669999999999 587.7170000000001 1231.918 580.8600000000001 1243.8619999999999 574.0500000000001 C 1252.2549999999999 569.267 1260.724 564.6300000000001 1269.2259999999999 560.046 C 1271.5525418630793 558.7917307185319 1273.8692788059625 557.5193587888939 1276.176 556.2290000000003 C 1290.614 548.154 1305.876 541.283 1321.465 535.7510000000001 C 1334.125 531.3750000000001 1347.0549999999998 527.8290000000001 1360.2849999999999 525.676 C 1366.8349999999998 524.659 1373.3739999999998 524.1790000000001 1379.9999999999998 524 L 1382.6949999999997 523.879 C 1390.5099999999998 523.615 1398.4249999999997 524.381 1406.1689999999996 525.399 C 1410.9809999999995 526.086 1415.6769999999997 527.205 1420.3749999999995 528.438 L 1421.5879999999995 528.75 C 1424.0879999999995 529.404 1426.5879999999995 530.067 1428.9999999999995 531 C 1430.7429908962554 531.8669107032101 1432.4148477812819 532.870024834226 1433.9999999999995 534 L 1435.9999999999995 534 C 1433.2369999999996 538.359 1430.1759999999995 542.337 1426.8129999999996 546.25 L 1425.3519999999996 547.964 C 1422.0619999999997 551.817 1418.6859999999997 555.5870000000001 1415.2749999999996 559.3330000000001 C 1411.3889999999997 563.6260000000001 1407.7519999999997 568.113 1404.1149999999996 572.618 C 1402.291063014996 574.8752527105767 1400.4610563919389 577.127594195458 1398.6249999999998 579.3749999999999 L 1397.5129999999995 580.739 C 1395.4823881104712 583.2234859143335 1393.4245977723826 585.6856338872999 1391.3399999999995 588.125 C 1385.6989999999994 594.722 1380.2579999999994 601.418 1375.0189999999996 608.342 C 1373.3271338821694 610.5708797360492 1371.6227737149766 612.7902480116547 1369.9059999999995 615 C 1357.8979999999995 630.518 1346.7119999999995 646.563 1335.9999999999995 663 L 1335.2359999999996 664.173 C 1328.0619999999997 675.196 1321.2839999999997 686.381 1315.0849999999996 697.982 C 1314.409204102836 699.2466360720508 1313.7211718135031 700.5046951127202 1313.0209999999995 701.756 C 1309.2499999999995 708.504 1306.3639999999996 715.381 1303.8189999999995 722.6659999999999 C 1301.0989999999995 730.6009999999999 1298.4049999999995 738.636 1297.0629999999994 746.938 C 1296.300419740902 752.0339202036948 1295.7658868172737 757.1613655453908 1295.4609999999993 762.3050000000001 L 1295.3989999999994 763.3599999999999 C 1294.8189999999995 773.4579999999999 1294.7649999999994 783.5739999999998 1294.6359999999995 793.685 C 1294.0899999999995 835.962 1294.0899999999995 835.962 1292.1409999999996 856.4889999999999 C 1292.0032090712436 857.9815112338592 1291.8708748536242 859.474521210475 1291.7439999999997 860.9680000000001 C 1290.0309999999997 880.6279999999999 1285.8639999999996 899.894 1281.9639999999997 919.208 C 1273.4269999999997 961.5029999999999 1273.4269999999997 961.5029999999999 1272.8709999999996 983.141 C 1272.6089999999997 995.861 1273.3609999999996 1008.7149999999999 1275.1899999999996 1021.308 C 1275.9619999999995 1026.237 1276.9249999999995 1031.128 1277.9999999999995 1036 L 1277.1999999999996 1035.545 C 1272.1559999999995 1032.728 1267.0249999999996 1030.2720000000002 1261.5699999999995 1028.371 C 1252.506947197503 1025.2919109789398 1243.1931520680937 1023.0072941825752 1233.7339999999995 1021.5430000000001 Q 1232.4299999999994 1021.3470000000001 1231.1219999999994 1021.1630000000001 C 1230.2489999999993 1021.0360000000002 1229.3769999999995 1020.8960000000001 1228.5059999999994 1020.7510000000001 C 1223.8419999999994 1020.0090000000001 1219.2659999999994 1019.8210000000001 1214.5589999999995 1019.7970000000001 L 1212.1459999999995 1019.7760000000002 C 1209.5759999999996 1019.7560000000002 1207.0059999999994 1019.7510000000002 1204.4379999999994 1019.7500000000002 L 1203.1099999999994 1019.7490000000003 C 1191.3799999999994 1019.7430000000003 1179.7569999999994 1019.8120000000002 1168.1649999999995 1021.8190000000003 C 1166.5189999999996 1022.1190000000003 1164.8779999999995 1022.4390000000003 1163.2369999999994 1022.7630000000003 C 1161.9769999999994 1023.0030000000003 1160.7159999999994 1023.2250000000003 1159.4519999999993 1023.4400000000003 C 1141.9639999999993 1026.4270000000004 1125.4139999999993 1032.3220000000003 1108.6839999999993 1038.0560000000003 C 1089.4179999999992 1044.6580000000004 1070.2439999999992 1051.1950000000002 1050.1439999999993 1054.7930000000003 C 1049.0879999999993 1054.9830000000004 1048.0319999999992 1055.1850000000004 1046.9779999999994 1055.3890000000004 C 1039.6679999999994 1056.7720000000004 1032.3879999999995 1057.1540000000005 1024.9659999999994 1057.2830000000004 C 1016.7899999999994 1057.3800000000003 1008.6249999999994 1057.2900000000004 1000.5349999999994 1056.0000000000005 C 993.1669999999993 1054.7400000000005 985.8599999999994 1052.9050000000004 978.8049999999994 1050.4300000000005 C 973.8619999999994 1048.6440000000005 969.0669999999993 1046.5820000000006 964.4449999999994 1044.0700000000006 C 959.7049999999994 1041.3230000000005 955.3289999999994 1038.1000000000006 951.1139999999994 1034.6060000000007 C 946.8409999999993 1030.9960000000008 942.8489999999994 1027.1460000000006 939.2379999999994 1022.8660000000007 C 935.6829999999994 1018.4320000000007 932.6769999999993 1013.6960000000007 929.9279999999994 1008.7260000000007 C 925.6919999999994 1000.8560000000007 922.0709999999995 992.8450000000007 919.2529999999995 984.3560000000007 C 914.4849999999994 969.6000000000007 912.1109999999994 954.2060000000007 909.7209999999994 938.9210000000007 L 909.1459999999994 935.2640000000007 L 908.7599999999994 932.8100000000007 L 908.5659999999995 931.5800000000007 Q 908.0099999999994 928.0250000000008 907.4859999999994 924.4660000000007 C 906.2929999999994 916.4100000000007 904.7919999999995 908.5740000000006 902.4879999999994 900.7540000000007 L 902.1779999999994 899.6910000000007 C 901.0149999999994 895.7570000000007 899.6519999999995 891.9900000000007 897.8649999999994 888.2910000000007 C 896.2379999999995 885.1900000000007 894.2969999999995 882.3370000000008 892.1909999999995 879.5430000000007 C 890.6109999999994 877.5690000000006 888.9559999999994 875.7230000000006 887.1269999999995 873.9770000000007 C 885.2129999999995 872.3170000000007 883.1689999999995 870.9300000000006 880.9999999999995 869.6250000000007 C 879.3526875521525 868.7136199758918 877.6856215421641 867.8384103206479 875.9999999999995 867.0000000000007 L 875.0499999999995 866.4770000000007 C 873.9142797767868 865.8510283981213 872.7364443197206 865.3047132286737 871.5249999999995 864.8420000000007 C 869.7549999999995 864.2980000000007 868.0079999999995 864.0010000000007 866.1739999999995 863.7540000000007 C 860.6019999999995 863.1210000000007 854.9639999999995 862.8030000000007 849.3599999999996 863.0820000000007 C 847.0829999999995 863.2910000000006 844.8899999999995 863.6680000000007 842.6719999999996 864.2190000000006 Q 841.3319999999995 864.5980000000006 839.9999999999995 864.9990000000006 L 838.4549999999996 865.4610000000006 C 834.5089999999996 866.6930000000006 830.6909999999996 868.1310000000005 826.9999999999995 870.0000000000006 C 823.0559999999996 872.3040000000005 819.5079999999996 875.0880000000005 815.9999999999995 878.0000000000006 C 815.5699999999996 878.3500000000006 815.1419999999996 878.7020000000006 814.6999999999996 879.0630000000006 C 810.3889999999996 882.6260000000005 806.3569999999996 886.4330000000006 802.6599999999996 890.6330000000006 C 797.2599999999996 897.0460000000006 792.7879999999997 904.1560000000006 788.5739999999996 911.3870000000006 C 784.7739999999997 918.0060000000007 781.6889999999996 924.8630000000006 778.9999999999997 932.0000000000007 L 778.6049999999997 933.0460000000007 C 773.98 945.404 770.619 958.076 768 971 L 767.744 972.238 C 765.946 980.9820000000001 765.051 989.7310000000001 764.798 998.6500000000001 C 764.041 1028.633 764.041 1028.633 765.944 1042.0300000000002 C 766.471 1045.3930000000003 767.1859999999999 1048.6960000000001 768 1052.0000000000002 L 768.294 1053.2240000000002 C 770.1039999999999 1060.707 772.244 1068.0970000000002 775.327 1075.1640000000002 C 777.065 1079.0010000000002 779.071 1082.6640000000002 781.419 1086.1620000000003 C 783.569 1089.2660000000003 785.905 1092.1870000000004 788.515 1094.9180000000003 C 790.433 1096.8510000000003 792.442 1098.6280000000004 794.65 1100.2230000000004 C 798.019 1102.5490000000004 801.568 1104.4860000000003 805.2669999999999 1106.2320000000004 C 808.8739999999999 1107.8300000000004 812.487 1109.1600000000005 816.3149999999999 1110.1300000000003 C 820.2019999999999 1111.0830000000003 824.1199999999999 1111.8030000000003 828.0649999999999 1112.4570000000003 L 829.223 1112.6510000000003 C 837.928 1114.0930000000003 846.678 1115.0200000000002 855.4509999999999 1115.9310000000003 C 872.1779999999999 1117.6710000000003 888.7669999999999 1119.4210000000003 904.9999999999999 1124.0000000000002 L 906.1899999999999 1124.3280000000002 C 913.506 1126.3470000000002 920.582 1128.7970000000003 927.4689999999999 1131.996 C 931.795 1134.063 936.0229999999999 1136.314 939.9989999999999 1139 C 943.4229999999999 1141.46 946.5169999999999 1144.25 949.4769999999999 1147.246 C 952.1369999999998 1150.086 954.6389999999999 1152.998 956.8289999999998 1156.219 C 958.158604482336 1158.3460170369929 959.310829881956 1160.578892731583 960.2739999999999 1162.895 C 961.3119999999999 1165.561 962.2389999999999 1168.241 962.9999999999999 1171 L 963.3129999999999 1172.106 C 963.7019999999999 1173.718 963.9509999999999 1175.308 964.0689999999998 1176.963 C 964.4339999999999 1183.93 964.4879999999998 1191.062 963.8289999999998 1198.011 C 963.2849999999999 1202.441 962.2289999999998 1206.7169999999999 960.9989999999998 1211 L 960.6669999999998 1212.17 C 956.8069999999998 1225.6090000000002 951.6419999999998 1238.44 946.1769999999998 1251.286 C 937.6049999999998 1271.441 929.5819999999998 1291.9650000000001 924.6229999999998 1313.354 C 922.1059999999998 1324.618 920.4769999999999 1336.0810000000001 919.1709999999998 1347.5430000000001 C 919.0381871276571 1348.6679261722572 918.8978506544962 1349.7919513207107 918.7499999999998 1350.9150000000002 C 918.0459999999998 1356.4950000000001 917.8279999999997 1362.0200000000002 917.7699999999998 1367.641 Q 917.7429999999997 1370.018 917.7079999999997 1372.3960000000002 L 917.6119999999997 1379.2160000000001 C 916.7489999999997 1441.9350000000002 916.7489999999997 1441.9350000000002 912.6619999999997 1463.9550000000002 C 912.1381134363742 1466.642799694885 911.584078547456 1469.324635243229 911 1472 L 910.474 1474.502 C 906.778 1491.812 901.154 1508.875 894.534 1525.274 C 886.356 1545.2589999999998 877.043 1564.811 867.962 1584.399 C 857.925 1606.049 848.358 1627.8439999999998 839.4159999999999 1649.971 L 838.18 1653.025 C 836.6747725634934 1656.740498475936 835.1890853731582 1660.463883245073 833.7229999999994 1664.195000000001 Q 833.073 1665.8500000000001 832.413 1667.4980000000003 C 829.751 1674.1850000000002 829.751 1674.1850000000002 829 1677.0000000000002 C 828.799 1678.2670000000003 828.752 1679.4030000000002 828.746 1680.6950000000002 C 828.808 1681.4650000000001 828.882 1682.2350000000001 829 1683.0000000000002 C 862.382 1693.4300000000003 897.359 1700.1550000000002 932.012 1704.6730000000002 C 950.954 1707.1020000000003 969.8979999999999 1708.6830000000002 989 1709.0000000000002 C 990.537 1703.7520000000002 991.938 1698.4730000000002 993.317 1693.1820000000002 C 1006.287 1643.5160000000003 1021.273 1594.4590000000003 1048 1527.0000000000002 C 1048.22 1526.4740000000002 1048.44 1525.9480000000003 1048.668 1525.4070000000002 C 1060.6229999999998 1496.9220000000003 1074.298 1468.8010000000002 1089 1441.6250000000002 L 1089.807 1440.1320000000003 C 1100.346 1420.7150000000004 1112.157 1401.9740000000004 1125 1384.0000000000002 L 1125.847 1382.8140000000003 C 1133.689 1371.8510000000003 1141.8419999999999 1361.1800000000003 1150.477 1350.8310000000004 C 1151.6758745666905 1349.3901309624437 1152.8649022531877 1347.9410972217083 1154.044 1346.4840000000004 C 1160.3670000000002 1338.7040000000004 1167.277 1331.5140000000004 1174.342 1324.4120000000005 Q 1175.4 1323.3480000000004 1176.4540000000002 1322.2800000000004 C 1182.5542759618922 1316.1139445491144 1189.0220968744934 1310.3226935027321 1195.8220000000001 1304.9380000000003 C 1197.1222792181532 1303.897993252576 1198.412341092179 1302.845276095425 1199.692 1301.7800000000004 C 1208.824 1294.2160000000003 1218.571 1287.5970000000004 1228.834 1281.6620000000005 C 1235.432 1277.9160000000004 1242.2720000000002 1274.6960000000006 1249.409 1272.1170000000004 C 1251.885144936182 1271.2492788060702 1254.3740881486135 1270.4185198340128 1256.875 1269.6250000000005 L 1258.024 1269.2550000000006 C 1263.754 1267.4390000000005 1269.5739999999998 1266.0240000000006 1275.5279999999998 1265.1740000000007 C 1280.2079999999999 1264.6220000000008 1284.918 1264.6060000000007 1289.6249999999998 1264.6240000000007 L 1291.3419999999999 1264.6290000000008 C 1297.232 1264.663000000001 1303.1109999999999 1264.7570000000007 1308.9189999999999 1265.8140000000008 C 1314.2979999999998 1266.9040000000007 1319.4329999999998 1268.7210000000007 1324.543 1270.6940000000009 C 1329.856 1272.8120000000008 1335.0649999999998 1275.1940000000009 1339.9589999999998 1278.1660000000008 C 1346.2359999999999 1282.106000000001 1351.9879999999998 1286.799000000001 1357.493 1291.7460000000008 C 1364.455 1298.0990000000008 1370.906 1304.9440000000009 1376.6799999999998 1312.395000000001 C 1386.7199999999998 1325.509000000001 1395.1249999999998 1339.769000000001 1402.7599999999998 1354.393000000001 C 1414.3099999999997 1376.803000000001 1422.5099999999998 1400.7510000000009 1430.0039999999997 1424.7720000000008 C 1440.4039999999998 1458.2960000000007 1447.0259999999996 1493.1410000000008 1451.4959999999996 1527.9340000000009 C 1452.8909999999996 1538.930000000001 1453.9849999999997 1549.9640000000009 1454.9999999999995 1561.000000000001 C 1456.7019999999995 1560.7720000000008 1458.3479999999995 1560.472000000001 1459.9999999999995 1560.000000000001 C 1460.9519999999995 1559.4840000000008 1460.9519999999995 1559.4840000000008 1461.7599999999995 1558.8770000000009 C 1462.2924059061431 1558.426324180785 1462.8164941886657 1557.965913291368 1463.3319999999994 1557.4960000000008 L 1464.1849999999995 1556.7610000000009 C 1465.0689999999995 1555.9950000000008 1465.9409999999996 1555.2170000000008 1466.8129999999994 1554.4380000000008 Q 1467.7169999999994 1553.6480000000008 1468.6229999999994 1552.8610000000008 C 1470.0902036503674 1551.5833300023266 1471.5492333982386 1550.296303761401 1473 1549 C 1473.298 1532.88 1472.667 1517.035 1471 1501 L 1470.888 1499.917 C 1466.837 1460.826 1460.75 1422.213 1451.263 1384.059 L 1450.473 1380.876 C 1441.037 1342.835 1429.138 1305.536 1407.427 1253.96 C 1403.817 1245.836 1400.0369999999998 1237.787 1396.2369999999999 1229.75 C 1393.4509999999998 1223.853 1390.724 1217.927 1387.9999999999998 1212 C 1408.5619999999997 1239.292 1426.7299999999998 1267.956 1442.9999999999998 1298 L 1443.8779999999997 1299.62 C 1459.4719999999998 1328.474 1472.4719999999998 1358.319 1483.9999999999998 1389 L 1484.3729999999998 1389.99 C 1497.7009999999998 1425.437 1508.1699999999998 1461.898 1516.4059999999997 1503.785 Q 1516.7059999999997 1505.393 1516.9999999999998 1507 L 1521.9999999999998 1506 L 1522.8479999999997 1505.152 L 1524.0629999999996 1503.938 L 1525.4489999999996 1502.547 C 1526.5081066128648 1501.4887129674828 1527.5734585518173 1500.436694594725 1528.6449999999995 1499.391 C 1532.0349621975445 1496.0610117997226 1535.2812497853092 1492.5878510814664 1538.3749999999995 1488.981 C 1540.325719805694 1486.7364924192157 1542.369160561446 1484.5742818823949 1544.4999999999995 1482.5 C 1547.8169999999996 1479.24 1550.8819999999996 1475.81 1553.9059999999995 1472.278 Q 1555.4509999999996 1470.475 1556.9999999999995 1468.675 Q 1560.8529999999996 1464.1989999999998 1564.6859999999995 1459.705 Q 1566.8789999999995 1457.136 1569.0889999999995 1454.5829999999999 C 1576.4769999999994 1446.0379999999998 1583.3779999999995 1437.1619999999998 1590.1539999999995 1428.1259999999997 Q 1591.4149999999995 1426.4469999999997 1592.6839999999995 1424.7739999999997 C 1616.4239999999995 1393.3809999999996 1637.1329999999996 1359.7169999999996 1655.0779999999995 1324.7029999999997 L 1655.8229999999994 1323.2449999999997 Q 1657.8929999999993 1319.1949999999997 1660.0149999999994 1315.1699999999996 C 1674.9179999999994 1286.8559999999995 1686.8809999999994 1256.3459999999995 1696.6799999999994 1225.8959999999997 C 1700.0489999999993 1215.3409999999997 1703.0899999999995 1204.6899999999998 1705.9999999999993 1193.9999999999998 L 1706.2769999999994 1192.9829999999997 C 1716.0849999999994 1156.9359999999997 1722.5289999999993 1120.3629999999998 1726.8519999999994 1083.2709999999997 L 1727.2819999999995 1079.6239999999998 C 1730.0499999999995 1056.1609999999998 1730.2799999999995 1032.6659999999997 1730.3109999999995 1009.0699999999998 L 1730.3179999999995 1005.7149999999998 C 1730.3899999999994 978.7319999999999 1729.3829999999996 951.9189999999998 1725.8449999999996 925.1339999999998 Q 1725.5999999999997 923.2669999999998 1725.3599999999997 921.3999999999997 C 1720.0799999999997 880.4489999999997 1711.3519999999996 840.4389999999997 1699.0779999999997 801.0279999999998 C 1690.1359999999997 772.4299999999998 1679.1859999999997 744.6549999999997 1666.6639999999998 717.4459999999998 C 1666.0372038632977 716.0809153608109 1665.4138685279288 714.7142443046538 1664.794 713.346 C 1659.0469999999998 700.6949999999998 1652.562 688.4979999999998 1645.771 676.3779999999998 Q 1644.627 674.3329999999999 1643.4869999999999 672.2869999999998 C 1624.8169348626757 638.8448987824007 1603.3220009914062 607.0601644274169 1579.2369999999996 577.2799999999995 C 1577.5077248297928 575.1730517410705 1575.762004820146 573.0796544409785 1574 571 L 1572.71 569.473 Q 1569.907 566.1529999999999 1567.0900000000001 562.8449999999999 C 1564.4945333201213 559.7929061212078 1561.9419495506354 556.7046031251888 1559.4330000000002 553.5809999999999 C 1556.1490000000001 549.4959999999999 1552.8150000000003 545.5899999999999 1549.0010000000002 541.9869999999999 C 1547.1190000000001 540.1929999999999 1545.3850000000002 538.3099999999998 1543.6910000000003 536.3389999999998 C 1539.9050000000002 531.9379999999999 1535.9280000000003 527.7789999999999 1531.8160000000003 523.6839999999999 L 1529.8190000000002 521.6829999999999 C 1528.4362498084413 520.2994159167636 1527.0522492430205 518.9170820186905 1525.6669999999997 517.5359999999995 C 1523.9147509113911 515.789250249228 1522.16574789415 514.0392472302616 1520.4199999999996 512.2859999999994 Q 1518.364 510.22599999999983 1516.304 508.16999999999985 Q 1515.3380000000002 507.20499999999987 1514.373 506.23699999999985 C 1510.027 501.87699999999984 1505.5230000000001 497.76199999999983 1500.858 493.74699999999984 C 1499.19 492.29499999999985 1497.571 490.7889999999998 1495.947 489.28699999999986 C 1491.1409999999998 484.84999999999985 1486.206 480.62699999999984 1481.1129999999998 476.5239999999999 C 1478.8012268321304 474.6550018799766 1476.5071248907332 472.7642511953492 1474.2309999999998 470.8519999999998 C 1452.0409999999997 452.29399999999987 1428.5029999999997 435.36899999999986 1403.9999999999998 419.9999999999999 L 1402.9319999999998 419.3289999999999 C 1384.0409999999997 407.4889999999999 1364.6659999999997 396.5889999999999 1344.8159999999998 386.4439999999999 C 1342.9982574835976 385.5145484518447 1341.1849040251545 384.57653804153983 1339.3759999999995 383.6299999999998 C 1312.9589999999998 369.8099999999999 1285.1659999999997 358.7019999999999 1256.9999999999998 348.9999999999999 L 1256.0019999999997 348.6559999999999 C 1233.9619999999998 341.05599999999987 1211.7189999999998 334.6549999999999 1189.0419999999997 329.2489999999999 L 1185.9639999999997 328.5109999999999 C 1156.5819999999997 321.4609999999999 1126.8739999999998 316.6889999999999 1096.8129999999996 313.68799999999993 L 1095.5719999999997 313.56299999999993 C 1089.7208605004937 312.9745663283548 1083.8631387967532 312.453531783457 1077.9999999999995 312.00000000000006 L 1076.924 311.916 C 1061.1399999999999 310.705 1045.307 310.812 1029.487 310.815 Q 1025.6660000000002 310.815 1021.845 310.794 C 1001.804 310.7 981.9830000000001 311.301 962 313" stroke-linecap="round" />
</g>
		<g transform="matrix(0.1430819964371597 0 0 0.1430819964371597 28.417880362112847 68.02744620605715)"  >
<path style="stroke: none; stroke-width: 1; stroke-dasharray: none; stroke-linecap: butt; stroke-dashoffset: 0; stroke-linejoin: miter; stroke-miterlimit: 4; fill: rgb(224,147,41); fill-rule: nonzero; opacity: 1;"  paint-order="stroke"  transform=" translate(-1222.5499430968634, -1485.8782026081544)" d="M 1289.625 1262.625 L 1291.486 1262.629 C 1297.7 1262.6619999999998 1303.928 1262.706 1310.0590000000002 1263.8139999999999 C 1313.8060000000003 1264.5729999999999 1317.4130000000002 1265.6889999999999 1321.0000000000002 1266.9999999999998 L 1322.0930000000003 1267.3969999999997 C 1327.9070000000004 1269.5379999999998 1333.5800000000004 1271.9889999999998 1339.0000000000002 1274.9999999999998 C 1344.5760000000002 1278.2529999999997 1349.6500000000003 1282.1789999999999 1354.5840000000003 1286.3249999999998 C 1362.0655547549927 1292.68471497053 1369.0017592710694 1299.6593870560196 1375.3200000000004 1307.176 C 1383.9850000000004 1317.667 1391.2890000000004 1329.187 1398.0000000000005 1341 C 1407.8430000000005 1358.375 1415.8260000000005 1376.421 1422.5170000000005 1395.228 C 1434.5420000000006 1429.2150000000001 1443.4630000000004 1463.871 1449.4100000000005 1499.431 C 1450.28211910706 1504.7584412269237 1451.1038225377745 1510.0940132804792 1451.8750000000005 1515.4370000000001 L 1452.0250000000005 1516.467 C 1452.7764255367333 1521.6662301482309 1453.4811206475645 1526.8721069438095 1454.1390000000004 1532.0839999999996 Q 1454.5750000000005 1535.489 1454.9900000000007 1538.895 Q 1455.1220000000008 1539.975 1455.2580000000007 1541.056 C 1456.0920000000008 1547.7250000000001 1456.2310000000007 1554.284 1456.0000000000007 1561 C 1437.6530000000007 1575.204 1418.9850000000006 1588.623 1399.4130000000007 1601.099 Q 1397.3630000000007 1602.407 1395.3150000000007 1603.72 C 1382.5230000000008 1611.901 1369.4050000000007 1619.333 1355.9790000000007 1626.422 C 1353.5711025664805 1627.696618042176 1351.1690771872004 1628.982298293062 1348.7730000000008 1630.279 C 1317.0980000000009 1647.372 1283.5750000000007 1661.042 1249.4370000000008 1672.375 C 1235.7230000000009 1676.911 1221.9510000000007 1681.246 1208.000000000001 1685 L 1206.440000000001 1685.421 C 1169.628000000001 1695.335 1131.804000000001 1702.49 1093.813000000001 1705.891 C 1084.930000000001 1706.669 1076.037000000001 1707.316 1067.137000000001 1707.866 Q 1065.005000000001 1707.998 1062.872000000001 1708.144 C 1050.776000000001 1708.973 1038.716000000001 1709.158 1026.593000000001 1709.13 Q 1022.779000000001 1709.124 1018.964000000001 1709.134 Q 1015.954000000001 1709.138 1012.943000000001 1709.134 Q 1011.5370000000011 1709.133 1010.132000000001 1709.136 C 1003.372000000001 1709.1499999999999 996.722000000001 1708.715 990.000000000001 1708 L 989.000000000001 1707 C 989.5136269551746 1701.0236304773778 990.5448273160815 1695.1030949854087 992.082000000001 1689.305 L 992.718000000001 1686.8410000000001 Q 993.573000000001 1683.5410000000002 994.449000000001 1680.248 L 995.548000000001 1676.084 C 1000.789000000001 1656.208 1006.693000000001 1636.5620000000001 1013.000000000001 1617 L 1013.380000000001 1615.82 C 1025.998000000001 1576.6799999999998 1039.736000000001 1537.6589999999999 1072.000000000001 1470 L 1072.654000000001 1468.662 C 1075.058000000001 1463.752 1077.5040000000008 1458.864 1080.000000000001 1454 L 1080.555000000001 1452.916 C 1095.404000000001 1423.935 1112.689000000001 1396.239 1132.303000000001 1370.232 C 1137.667000000001 1363.155 1143.144000000001 1356.165 1148.859000000001 1349.368 C 1150.0570000000012 1347.932 1151.233000000001 1346.48 1152.410000000001 1345.027 C 1158.777000000001 1337.252 1165.723000000001 1330.0610000000001 1172.808000000001 1322.9460000000001 Q 1173.9180000000008 1321.8300000000002 1175.025000000001 1320.709 C 1181.307000000001 1314.366 1187.823000000001 1308.47 1194.830000000001 1302.93 C 1196.1282869954655 1301.8938391555173 1197.4156908743137 1300.8441149674043 1198.6920000000011 1299.7810000000002 C 1207.8220000000013 1292.2150000000001 1217.571000000001 1285.5970000000002 1227.8340000000012 1279.6620000000003 C 1234.4320000000012 1275.9160000000002 1241.2720000000013 1272.6960000000004 1248.4090000000012 1270.1170000000002 C 1250.8849993841798 1269.2488533804628 1253.3739489912487 1268.4180922740047 1255.8750000000011 1267.6250000000002 L 1257.024000000001 1267.2560000000003 C 1262.737000000001 1265.4440000000004 1268.545000000001 1264.0100000000002 1274.485000000001 1263.1730000000002 C 1279.511000000001 1262.5980000000002 1284.573000000001 1262.6070000000002 1289.6250000000011 1262.6250000000002" stroke-linecap="round" />
</g>
		<g transform="matrix(0.1430819964371597 0 0 0.1430819964371597 38.712709688579096 -52.79644021562987)"  >
<path style="stroke: none; stroke-width: 1; stroke-dasharray: none; stroke-linecap: butt; stroke-dashoffset: 0; stroke-linejoin: miter; stroke-miterlimit: 4; fill: rgb(224,147,41); fill-rule: nonzero; opacity: 1;"  paint-order="stroke"  transform=" translate(-1294.5005, -641.4401221348243)" d="M 1423.311 543.881 C 1424.4279999999999 543.8779999999999 1424.4279999999999 543.8779999999999 1426.001 544.001 L 1425.001 547.001 C 1424.695 547.199 1424.391 547.398 1424.076 547.6039999999999 C 1414.176 554.136 1405.071 561.4879999999999 1396.018 569.1399999999999 Q 1394.554 570.3749999999999 1393.088 571.6079999999998 C 1385.306 578.1519999999998 1377.748 584.9039999999999 1370.32 591.8459999999998 C 1368.6369184508287 593.4137242786481 1366.9374922418556 594.9638089925998 1365.222 596.4959999999998 C 1358.504 602.5209999999997 1352.077 608.8159999999998 1345.687 615.1869999999998 L 1344.389 616.4779999999998 C 1339.6 621.2439999999998 1334.954 626.0739999999998 1330.5529999999999 631.2019999999999 C 1328.733 633.3219999999999 1326.8359999999998 635.3639999999999 1324.933 637.4089999999999 C 1319.81196368896 642.9104538741541 1314.903048101957 648.6056098823699 1310.217 654.482 C 1309.134613386598 655.8300171286459 1308.0456002027227 657.1727000501794 1306.95 658.5099999999999 C 1300.462 666.4449999999998 1294.306 674.5699999999998 1288.364 682.9219999999999 C 1287.6167798754768 683.9704230031072 1286.8717782088884 685.0204253519901 1286.129 686.0720000000001 C 1284.191 688.7999999999998 1282.1070000000002 691.4019999999999 1280.0000000000002 693.9999999999999 C 1273.5100000000002 696.0399999999998 1267.0120000000002 698.0299999999999 1260.4500000000003 699.8239999999998 C 1239.2270000000003 705.6449999999999 1218.7520000000002 712.7889999999999 1198.8300000000004 722.1699999999998 C 1193.5700000000004 724.6669999999998 1188.3400000000004 727.2249999999998 1183.1250000000005 729.8119999999999 L 1181.7090000000005 730.512 C 1176.5820000000006 733.053 1171.6420000000005 735.6379999999999 1167.0000000000005 739 L 1163.0000000000005 739 C 1164.7280000000005 734.137 1167.1640000000004 729.618 1169.5620000000004 725.062 L 1170.2290000000003 723.794 C 1176.5220000000002 711.867 1183.8290000000002 700.734 1192.0000000000002 690 L 1192.6220000000003 689.182 C 1198.4290000000003 681.565 1204.4120000000003 674.202 1210.9240000000002 667.172 C 1211.9958986295883 666.0002736432667 1213.0549618511127 664.8168696658 1214.101 663.6220000000001 C 1221.989 654.662 1230.256 645.82 1239.5620000000001 638.3120000000001 Q 1241.595 636.6990000000001 1243.6360000000002 635.0940000000002 C 1245.0288503319266 633.9696705589836 1246.4017311609327 632.8208246782757 1247.7540000000001 631.6480000000001 C 1255.797 624.7340000000002 1264.314 618.6450000000001 1273.054 612.6500000000001 Q 1274.332 611.7700000000001 1275.6080000000002 610.8840000000001 C 1292.8740000000003 598.9050000000001 1311.371 588.6770000000001 1330.0000000000002 579.0000000000001 L 1331.3970000000002 578.2730000000001 C 1355.3100000000002 565.8700000000001 1380.727 556.7700000000001 1406.3750000000002 548.6870000000001 L 1407.5350000000003 548.3200000000002 C 1409.7320240201739 547.6241634653688 1411.932044559205 546.9378237244802 1414.1350000000002 546.2610000000002 Q 1415.1320000000003 545.9550000000002 1416.13 545.6410000000002 C 1421.134 544.0780000000002 1421.134 544.0780000000002 1423.3110000000001 543.8810000000002" stroke-linecap="round" />
</g>
		<g transform="matrix(0.1430819964371597 0 0 0.1430819964371597 -0.77024032136503 -35.30365959643581)"  >
<path style="stroke: none; stroke-width: 1; stroke-dasharray: none; stroke-linecap: butt; stroke-dashoffset: 0; stroke-linejoin: miter; stroke-miterlimit: 4; fill: rgb(249,255,255); fill-rule: nonzero; opacity: 1;"  paint-order="stroke"  transform=" translate(-1018.5541825519861, -763.6971569454668)" d="M 1023.387 729.5 C 1025.616 729.88 1027.725 730.45 1029.859 731.197 C 1032.726132940897 732.3164535384127 1035.5012703532325 733.6585501134867 1038.1589999999999 735.211 C 1039.5397526806491 736.0862359390992 1040.8609813208964 737.0520189982534 1042.1139999999998 738.102 C 1043.1455044135635 739.0763397275025 1044.1065837317765 740.1226329630118 1044.9899999999998 741.233 C 1047.4819999999997 744.636 1049.6119999999999 748.2159999999999 1051.4929999999997 751.9879999999999 C 1051.8529999999996 752.786 1052.1479999999997 753.612 1052.4379999999996 754.438 C 1052.9819999999997 756.997 1053.1839999999997 759.592 1053.3299999999997 762.202 C 1053.4069999999997 764.827 1053.3289999999997 767.394 1052.9999999999998 770 C 1052.4959999999999 772.463 1051.7539999999997 774.786 1050.8349999999998 777.125 C 1049.7499999999998 779.629 1048.5199999999998 782.018 1047.0309999999997 784.305 C 1046.0797824484528 785.6456942474454 1045.0390797429818 786.9205968233932 1043.9159999999997 788.121 C 1042.2749999999996 789.696 1040.5059999999996 791.039 1038.6249999999998 792.312 C 1037.1109290986437 793.2546616136664 1035.5685499985632 794.1510756722647 1034 795 L 1033.04 795.543 C 1031.857884949334 796.1927056057958 1030.6295692245615 796.7545556012632 1029.365 797.224 C 1027.74 797.71 1026.1490000000001 797.9830000000001 1024.464 798.1800000000001 C 1020.872 798.47 1017.324 798.4830000000001 1013.731 798.211 C 1012.1138893134059 798.0162466682126 1010.5114032857205 797.7149245091606 1008.934 797.309 C 1006.6249641267636 796.596408755884 1004.375669215201 795.7029769135033 1002.207 794.637 C 999.923 793.4309999999999 997.7669999999999 792.1439999999999 995.7189999999999 790.5659999999999 C 994.4121766974196 789.4630225849764 993.2054746197571 788.2466160258241 992.1129999999999 786.9309999999999 C 990.2049999999999 784.4169999999999 988.4549999999999 781.8029999999999 986.9999999999999 778.9999999999999 C 986.0419999999999 776.8799999999999 985.2099999999999 774.7569999999998 984.5859999999999 772.5159999999998 C 984.0335214199819 769.2391602632827 983.7542275834312 765.9220860392429 983.7509999999999 762.5989999999998 C 983.8179999999999 760.5289999999998 984.0409999999998 758.5439999999999 984.4609999999999 756.5159999999998 C 984.9827049334546 754.3803957941411 985.6475403960428 752.2823220730083 986.4509999999999 750.2359999999999 C 987.3849999999999 748.1319999999998 988.4949999999999 746.1779999999999 989.7499999999999 744.2499999999999 C 991.2329999999998 742.1159999999999 992.8259999999999 740.1179999999999 994.6289999999999 738.2459999999999 C 995.994148937304 736.9278742515964 997.4602848238836 735.7185211155055 999.0139999999999 734.6289999999999 C 1001.1339999999999 733.276 1003.3489999999999 732.1719999999999 1005.6659999999999 731.1969999999999 C 1007.3417937583115 730.5496644644313 1009.0477665860559 729.983342889963 1010.7779999999999 729.4999999999999 C 1014.9399999999999 728.7159999999999 1019.2069999999999 728.9259999999999 1023.387 729.4999999999999" stroke-linecap="round" />
</g>
</g>
</g>
<g transform="matrix(1.9211538461538462 0 0 1.9211538461538462 642.172825 711.1937069608126)" id="text-logo"  >
<g style=""  paint-order="stroke"   >
		<g transform="matrix(1 0 0 1 0 0)" id="text-logo-path-0"  >
<path style="stroke: none; stroke-width: 0; stroke-dasharray: none; stroke-linecap: butt; stroke-dashoffset: 0; stroke-linejoin: miter; stroke-miterlimit: 4; fill: rgb(20,36,60); fill-rule: nonzero; opacity: 1;"  paint-order="stroke"  transform=" translate(-95.31500000000001, 18.2)" d="M 3.95 0 L 12.27 0 L 12.27 -7.96 L 19.34 -7.96 L 24.23 0 L 34.11 0 L 27.35 -10.3 C 31.04 -12.74 33.49 -17 33.49 -22.26 C 33.49 -30.26 27.66 -36.4 19.34 -36.4 L 3.95 -36.4 Z M 12.27 -15.76 L 12.27 -28.6 L 18.2 -28.6 C 21.89 -28.6 24.65 -26 24.65 -22.2 C 24.65 -18.46 22.1 -15.76 18.2 -15.76 Z M 40.72 0 L 49.82 0 L 52.1 -5.36 L 69.63 -5.36 L 71.92 0 L 81.02 0 L 65.42 -36.4 L 56.32 -36.4 Z M 55.22 -12.64 L 60.89 -25.79 L 66.51 -12.64 Z M 89.39 -36.4 L 89.39 0 L 105.4 0 C 115.91 0 123.6 -7.28 123.6 -18.2 C 123.6 -28.7 116.32 -36.4 105.4 -36.4 Z M 97.71 -7.8 L 97.71 -28.6 L 104.36 -28.6 C 110.4 -28.6 114.76 -24.49 114.76 -18.2 C 114.76 -12.17 110.66 -7.8 104.36 -7.8 Z M 132.18 -36.4 L 132.18 0 L 140.5 0 L 140.5 -36.4 Z M 167.7 0.83 C 178.67 0.83 186.68 -6.71 186.68 -18.15 C 186.68 -29.22 179.19 -37.23 167.7 -37.23 C 156.73 -37.23 148.72 -29.64 148.72 -18.15 C 148.72 -7.18 156.26 0.83 167.7 0.83 Z M 167.7 -7.38 C 161.77 -7.38 157.4 -12.01 157.4 -18.15 C 157.4 -24.18 161.46 -29.02 167.7 -29.02 C 173.63 -29.02 178 -24.34 178 -18.15 C 178 -12.22 173.89 -7.38 167.7 -7.38 Z" stroke-linecap="round" />
</g>
</g>
</g>
<g transform="matrix(1.9211538461538462 0 0 1.9211538461538462 640.1037423076923 798.9779502300433)" id="tagline-43cb76c5-0246-4619-b31c-e9e63113ca67-logo"  >
<g style=""  paint-order="stroke"   >
		<g transform="matrix(1 0 0 1 0 0)" id="tagline-43cb76c5-0246-4619-b31c-e9e63113ca67-logo-path-0"  >
<path style="stroke: none; stroke-width: 0; stroke-dasharray: none; stroke-linecap: butt; stroke-dashoffset: 0; stroke-linejoin: miter; stroke-miterlimit: 4; fill: rgb(20,36,60); fill-rule: nonzero; opacity: 1;"  paint-order="stroke"  transform=" translate(-130.39499999999998, 9.29)" d="M 0.97 0 L 5.51 0 L 5.51 -6.67 L 9.99 -6.67 C 15.28 -6.67 16.88 -10.56 16.88 -13.04 C 16.88 -16.5 14.74 -18.9 10.02 -18.9 L 0.97 -18.9 Z M 5.51 -10.34 L 5.51 -15.23 L 9.58 -15.23 C 11.26 -15.23 12.23 -14.28 12.23 -12.77 C 12.23 -11.26 11.26 -10.34 9.58 -10.34 Z M 30.89 0 L 44.36 0 L 44.36 -4.21 L 35.42 -4.21 L 35.42 -7.34 L 43.77 -7.34 L 43.77 -11.56 L 35.42 -11.56 L 35.42 -14.69 L 44.36 -14.69 L 44.36 -18.9 L 30.89 -18.9 Z M 59.02 0 L 63.29 0 L 63.29 -11.99 L 71.33 0 L 75.06 0 L 75.06 -18.9 L 70.79 -18.9 L 70.79 -9.07 L 64.23 -18.9 L 59.02 -18.9 Z M 99.47 0 L 105.73 0 L 105.73 -9.45 L 101.2 -9.45 L 101.2 -3.67 L 99.06 -3.67 C 95.88 -3.67 94.37 -5.75 94.37 -9.4 C 94.37 -13.01 96.74 -15.23 100.58 -15.23 L 104.76 -15.23 L 104.79 -18.9 L 99.9 -18.9 C 93.42 -18.9 89.72 -15.31 89.72 -9.29 C 89.72 -3.56 93.34 -0.03 99.47 0 Z M 129.41 0.32 C 134.89 0.32 138.16 -2.43 138.16 -7.48 L 138.16 -18.9 L 133.08 -18.9 L 133.08 -7.94 C 133.08 -4.89 131.68 -4 129.41 -4 C 127.12 -4 125.71 -4.89 125.71 -7.94 L 125.71 -18.9 L 120.64 -18.9 L 120.64 -7.48 C 120.64 -2.43 123.96 0.32 129.41 0.32 Z M 153.06 0 L 157.6 0 L 157.6 -18.9 L 153.06 -18.9 Z M 172.5 0 L 176.77 0 L 176.77 -11.99 L 184.82 0 L 188.54 0 L 188.54 -18.9 L 184.28 -18.9 L 184.28 -9.07 L 177.71 -18.9 L 172.5 -18.9 Z M 205.88 0.32 C 207.33 0.32 208.31 -0.51 208.31 -1.84 C 208.31 -3.1 207.33 -4 205.88 -4 C 204.42 -4 203.45 -3.13 203.45 -1.84 C 203.45 -0.54 204.42 0.32 205.88 0.32 Z M 222.45 0 L 227.15 0 L 228.58 -3.83 L 235.01 -3.83 L 236.44 0 L 241.14 0 L 233.96 -18.9 L 229.64 -18.9 Z M 229.8 -7.51 L 231.8 -13.01 L 233.79 -7.51 Z M 255.29 0 L 259.82 0 L 259.82 -18.9 L 255.29 -18.9 Z" stroke-linecap="round" />
</g>
</g>
</g>
</svg>