<?xml version="1.0" encoding="utf-8" ?><svg xmlns="http://www.w3.org/2000/svg" xmlns:xlink="http://www.w3.org/1999/xlink" width="1024" height="1024" viewBox="0 0 1024 1024"><path fill="white" d="M0 0L1024 0L1024 1024L0 1024L0 0Z"/><path fill="#13223B" d="M268.483 396.4L367.215 396.252C376.857 396.22 401.767 396.627 410.033 395.338C415.09 394.549 440.59 383.802 445.443 381.646C475.606 368.163 505.053 353.135 533.668 336.62C540.656 332.547 547.595 328.393 554.486 324.158C560.535 320.371 565.972 316.583 572.491 313.499C589.079 305.651 608.267 308.585 621.252 321.788C635.832 336.614 633.438 354.661 633.181 373.774C655.491 385.756 668.949 396.558 682.582 418.178L684.455 421.446C699.101 447.072 702.767 477.529 694.621 505.898C686.649 534.429 667.498 558.533 641.509 572.75C638.682 574.308 635.824 575.81 632.937 577.255C633.128 600.32 635.081 621.021 612.439 634.803L610.138 636.171L609.342 636.541C584.549 647.8 569.853 635.101 549.17 622.528C536.318 614.716 523.212 606.685 510.218 599.084C477.291 579.822 443.626 563.847 408.019 550.274C407.511 594.088 408.01 638.999 408.026 682.897C376.652 683.265 343.931 683.087 312.534 682.862C312.755 638.704 312.203 594.002 312.793 549.931C300.323 549.223 281.479 549.86 268.502 549.994L268.483 396.4Z"/><path fill="#09122A" d="M610.138 636.171C606.528 633.388 605.333 634.285 600.64 633.801L600.654 633.379C603.899 631.769 606.097 632.006 609.706 632.341C611.156 632.476 611.601 633.611 612.439 634.803L610.138 636.171Z"/><path fill="#09122A" d="M682.582 418.178L684.455 421.446C683.348 422.831 682.613 424.253 680.752 423.98C679.893 421.562 681.235 420.079 682.582 418.178Z"/><path fill="white" d="M547.232 359.003L547.675 359.066C549.024 362.293 548.074 569.935 548.111 591.087C520.963 573.959 497.645 561.45 468.876 547.294C453.826 540.178 438.552 533.544 423.079 527.403C423.467 491.631 423.049 455.173 423.042 419.344C431.393 416.412 441.522 411.973 449.738 408.506C483.389 394.381 515.972 377.837 547.232 359.003Z"/><path fill="#DE912D" d="M294.734 422.622C328.212 422.767 363.777 421.913 397.058 422.693C396.519 455.695 396.98 489.984 396.959 523.091L295.035 523.355C295.132 489.777 295.032 456.199 294.734 422.622Z"/><path fill="white" d="M587.906 335.588C592.225 335.327 595.383 335.651 599.194 337.717C605.578 341.206 606.048 346.631 606.091 353.152C606.135 359.745 606.138 366.285 606.133 372.852L606.131 425.107L606.127 539.799C606.116 559.391 606.182 578.988 605.982 598.576C605.885 608.061 601.681 612.33 592.622 614.423C584.419 615.235 578.62 611.384 574.596 604.562C574.114 572.898 574.484 540.411 574.484 508.667L574.6 344.902C578.29 339.372 581.808 337.372 587.906 335.588Z"/><path fill="#DE912D" d="M339.035 549.632C353.227 549.521 367.419 549.528 381.611 549.65L381.538 656.265C367.524 656.511 353.164 656.425 339.121 656.5L339.035 549.632Z"/><path fill="#DE912D" d="M632.43 406.15C632.437 404.267 632.212 403.493 632.89 401.837C639.421 402.925 654.832 419.501 658.824 425.152C686.184 463.882 677.322 517.288 639.266 545.438C637.165 546.992 634.965 548.124 632.591 549.259C633 534.235 632.555 516.873 632.567 501.576L632.43 406.15Z"/><path fill="white" d="M632.43 406.15C632.437 404.267 632.212 403.493 632.89 401.837C639.421 402.925 654.832 419.501 658.824 425.152C686.184 463.882 677.322 517.288 639.266 545.438C637.165 546.992 634.965 548.124 632.591 549.259C632.681 548.428 632.729 547.266 633.243 546.607C638.115 540.363 643.432 533.837 647.728 527.18C657.827 511.535 663.063 493.248 662.775 474.629C662.423 449.382 650.356 423.563 632.43 406.15Z"/><path fill="#09122A" d="M571.944 632.551C574.213 632.459 581.6 632.095 583.215 633.02L582.516 633.504C579.276 633.461 574.239 635.368 572.36 634.242L571.944 632.551Z"/><path fill="#13223B" d="M718.707 362.577C728.752 361.752 735.872 368.773 732.892 377.96C730.59 385.059 708.28 396.241 701.582 399.306C699.657 399.606 695.69 399.888 694.065 398.953C669.768 384.963 710.166 366.169 718.707 362.577Z"/><path fill="#09122A" d="M702.293 392.71C704.321 392.503 705.286 392.282 707.259 392.646C708.413 393.875 708.041 393.119 708.002 395.168C705.728 395.056 703.798 394.574 702.293 392.71Z"/><path fill="#13223B" d="M728.364 588.553C725.068 589.547 720.429 590.78 717.348 588.824C708.567 583.248 687.652 578.077 687.735 565.77C687.774 562.664 689.043 559.7 691.262 557.527C693.551 555.295 696.531 554.227 699.707 554.302C705.286 554.432 728.324 567.137 732.441 571.32C735.017 576.666 734.732 580.648 731.687 585.742C730.742 586.548 729.31 587.843 728.364 588.553Z"/><path fill="#09122A" d="M728.412 584.405C728.348 582.697 728.308 580.987 728.292 579.277C728.29 577.217 728.232 572.71 729.622 571.33L730.471 571.619L730.906 573.028C731.765 572.636 731.721 572.321 732.441 571.32C735.017 576.666 734.732 580.648 731.687 585.742C730.742 586.548 729.31 587.843 728.364 588.553C724.434 585.255 722.098 586.944 716.249 585.289L716.453 584.79C720.764 584.305 724.087 584.121 728.412 584.405Z"/><path fill="#13223B" d="M732.441 571.32C735.017 576.666 734.732 580.648 731.687 585.742L731.128 584.463C729.416 580.473 729.315 577.124 730.906 573.028C731.765 572.636 731.721 572.321 732.441 571.32Z"/><path fill="#09122A" d="M692.845 557.353C699.592 559.444 702.879 556.204 706.97 557.936L707.4 559.271C704.976 559.623 695.849 560.558 693.734 559.361C693.069 558.985 693.1 558.276 692.845 557.353Z"/><path fill="#13223B" d="M720.216 464.189C726.907 463.966 734.015 464.247 740.62 463.985C757.303 463.324 762.469 482.727 745.283 487.459C737.557 487.513 718.234 488.994 712.666 484.782C703.674 477.98 708.897 465.681 720.216 464.189Z"/></svg>