<?xml version="1.0" encoding="utf-8" ?><svg xmlns="http://www.w3.org/2000/svg" xmlns:xlink="http://www.w3.org/1999/xlink" width="1024" height="1024" viewBox="0 0 1024 1024"><path fill="white" d="M0 0L1024 0L1024 1024L0 1024L0 0Z"/><path fill="#14233C" d="M309.789 289.994L657.698 289.974L548.51 580.046L624.46 580L624.565 463.296C624.572 439.31 624.255 414.472 624.962 390.57L726.644 390.587L754.22 390.583C760.341 390.584 766.805 390.213 772.857 391.146C776.444 391.699 779.6 393.362 782.144 395.965C786.736 400.665 861.232 522.18 862.1 525.591C863.642 531.649 862.485 554.68 862.52 562.517L862.597 686.105L804.547 686.126C805.532 678.47 805.514 670.718 804.492 663.067L839.862 663.078L839.925 532.204C833.649 521.232 825.929 509.382 819.265 498.4C803.956 473.084 788.519 447.845 772.956 422.685C771.115 419.505 769.241 416.602 767.246 413.517L647.519 413.504L647.492 602.985L498.467 602.983L450.747 603.003C441.703 603.004 432.504 603.093 423.475 602.845C417.821 602.689 410.575 598.369 404.985 596.096C395.803 592.445 386.019 590.544 376.139 590.492C359.038 590.542 347.889 595.622 333.098 602.353C331.088 603.267 315.228 602.963 311.367 602.959C297.693 602.961 284.018 602.891 270.344 602.748L270.476 663.128L295.161 663.037C293.509 671.843 293.837 677.302 294.857 686.178L247.015 686.027L247.021 580.103L524.191 579.984C529.896 566.221 535.431 549.981 540.669 535.92L569.011 461.022C580.739 430.76 592.234 400.408 603.496 369.969C610.529 351.422 618.603 331.545 624.844 312.877L309.82 313.114C309.678 305.521 309.789 297.612 309.789 289.994Z"/><path fill="#DC922C" d="M423.105 367.504L547.434 367.57C528.508 419.925 506.736 471.932 486.837 523.953C486.413 525.062 485.022 524.957 484.125 525.012C442.286 525.189 400.446 525.154 358.608 524.906C380.381 472.551 401.88 420.083 423.105 367.504Z"/><path fill="#14233C" d="M722.241 614.232C755.345 613.549 782.737 639.826 783.431 672.93C784.124 706.034 757.856 733.435 724.753 734.139C691.634 734.843 664.217 708.561 663.524 675.442C662.83 642.323 689.121 614.915 722.241 614.232Z"/><path fill="white" d="M718.233 637.371C738.587 634.504 757.419 648.662 760.317 669.011C763.215 689.361 749.085 708.213 728.74 711.142C708.351 714.076 689.451 699.91 686.546 679.517C683.642 659.125 697.836 640.245 718.233 637.371Z"/><path fill="#14233C" d="M369.259 614.782C402.169 611.077 431.825 634.818 435.413 667.741C439.001 700.664 415.155 730.236 382.219 733.707C349.449 737.16 320.058 713.46 316.488 680.702C312.918 647.944 336.514 618.469 369.259 614.782Z"/><path fill="white" d="M373.232 637.507C393.403 636.071 410.969 651.145 412.613 671.3C414.257 691.454 399.366 709.175 379.229 711.027C366.017 712.242 353.17 706.267 345.586 695.38C338.002 684.493 336.85 670.371 342.569 658.399C348.289 646.427 359.998 638.449 373.232 637.507Z"/><path fill="#14233C" d="M680.267 446.459L748.948 446.462C754.214 456.221 801.377 533.862 801.301 535.908C788.758 536.224 774.778 535.913 762.108 535.913L680.103 536.001C680.623 506.567 680.224 475.998 680.267 446.459Z"/><path fill="#14233C" d="M456.597 663.216C484.808 662.608 514.742 663.066 543.06 663.074C576.07 662.952 609.081 663.032 642.09 663.313C641.491 671.795 641.772 677.686 641.911 686.122L456.404 686.143C457.767 678.269 457.374 671.071 456.597 663.216Z"/><path fill="#14233C" d="M239.009 367.593C250.799 366.855 343.354 366.615 347.199 368.199C350.249 369.456 352.641 372.062 353.777 375.14C354.836 378.035 354.685 381.234 353.357 384.016C351.715 387.532 349.154 389.142 345.69 390.467C335.805 391.602 242.659 391.463 238.032 389.977C235.194 389.066 232.922 386.852 231.683 384.172C230.242 381.052 230.236 377.52 231.532 374.355C232.988 370.799 235.611 369.092 239.009 367.593Z"/><path fill="#14233C" d="M183.514 501.604C190.188 501.125 200.453 501.376 207.384 501.355L251.249 501.323C263.926 501.336 279.903 500.928 292.715 501.95C298.085 502.379 301.951 511.305 299.749 516.188C297.875 520.345 297.11 521.381 292.787 523.785C291.566 524.171 290.3 524.4 289.021 524.468C284.282 524.746 277.274 524.51 272.408 524.49L240.008 524.378C231.468 524.372 189.737 525.587 183.705 523.867C181.022 523.077 178.77 521.242 177.454 518.775C173.628 511.763 176.923 505.173 183.514 501.604Z"/><path fill="#14233C" d="M222.349 434.147C252.442 433.484 282.853 434.089 312.96 434.11C327.664 434.12 330.378 454.281 314.466 457.605C295.452 457.99 276.07 457.567 257.005 457.774C245.446 457.685 234.051 458.057 222.497 457.497C212.525 457.013 208.048 446.644 213.509 438.665C215.538 435.702 219 434.693 222.349 434.147Z"/><path fill="#DC922C" d="M383.437 367.516L399.036 367.49C382.6 410.021 364.341 452.26 347.211 494.538C343.142 504.582 339.051 515.004 334.593 524.862C329.408 524.935 323.922 524.827 318.713 524.801C333.462 486.638 350.348 448.797 365.681 410.818C371.454 396.517 377.26 381.612 383.437 367.516Z"/><path fill="#14233C" d="M152.615 434.192C163.687 433.856 193.657 429.777 193.641 444.938C193.634 451.816 190.083 456.019 183.625 457.561C174.438 457.652 152.543 459.42 145.905 454.965C137.736 449.482 140.447 436.094 152.615 434.192Z"/></svg>