<?xml version="1.0" encoding="utf-8" ?><svg xmlns="http://www.w3.org/2000/svg" xmlns:xlink="http://www.w3.org/1999/xlink" width="1024" height="1024" viewBox="0 0 1024 1024"><path fill="white" d="M0 0L1024 0L1024 1024L0 1024L0 0Z"/><path fill="#14223B" d="M498.884 340.714C507.087 340.058 518.866 340.518 527.057 341.14C570.932 344.383 613.005 359.93 648.448 385.996C699.731 423.694 733.862 480.288 743.275 543.236C744.995 554.549 749.586 595.781 743.563 603.395C741.4 606.13 739.483 606.355 736.183 606.658C729.182 607.301 721.957 606.991 714.922 606.988L680.177 606.994L567.128 607.007L380.692 606.991L318.767 607.021C308.027 607.026 297.231 607.062 286.495 606.983C282.894 606.956 278.986 606.744 276.197 604.276C274.166 602.442 272.987 599.847 272.944 597.111C272.862 594.429 273.886 591.831 275.777 589.926C277.832 587.842 280.661 587.173 283.505 587.13C292.708 586.992 301.927 587.03 311.13 587.031L365.969 587.055L535.75 587.026L637.026 586.922C637.601 550.093 629.017 516.535 603.748 487.991C599.063 482.681 588.757 475.62 586.72 469.106C584.958 463.472 596.276 447.665 599.346 442.397C608.511 426.669 618.813 411.473 627.694 395.62C622.876 391.927 613.362 386.905 607.772 384.091C577.026 368.239 542.888 360.093 508.296 360.354C448.923 360.808 395.81 384.378 354.371 426.54C365.335 436.151 376.453 445.584 387.721 454.837C393.845 459.92 400.676 465.248 406.365 470.703C415.351 479.319 403.071 494.442 392.07 484.808C385.343 478.917 377.716 472.656 370.818 466.951C362.859 460.351 354.954 453.686 347.104 446.957C342.469 443.008 337.978 439.241 333.551 435.017C327.338 429.088 329.087 424.207 334.413 418.36C378.118 370.384 434.159 344.403 498.884 340.714Z"/><path fill="#DF942D" d="M721.715 552.217C723.159 551.971 723.104 551.904 724.503 552.248C726.65 555.82 726.566 582.016 726.53 587.033L660.375 586.978C658.749 587.047 658.41 587.206 656.928 586.538C656.439 584.455 656.507 582.104 656.516 579.948C656.546 572.606 656.014 565.445 655.392 558.134C677.286 556.565 699.761 554.138 721.715 552.217Z"/><path fill="#DF942D" d="M643.433 406.887C653.37 415.235 662.891 424.065 671.964 433.345C658.073 446.459 643.609 459.172 629.521 472.148C626.856 474.584 624.437 476.761 621.644 479.044C617.291 474.286 613.464 470.148 608.825 465.67C611.16 460.729 617.394 450.948 620.387 445.877C627.996 432.837 635.678 419.84 643.433 406.887Z"/><path fill="#DF942D" d="M683.362 449.341C687.728 452.247 701.298 477.461 704.063 483.332C685.879 490.379 667.857 497.977 649.621 504.836L640.449 508.419C637.968 504.276 635.527 499.842 633.123 495.633C649.709 481.13 666.823 463.166 683.362 449.341Z"/><path fill="#DF942D" d="M711.043 501.448L711.464 501.602C714.219 504.678 719.805 527.238 720.881 532.388L658.382 538.084L651.446 538.944L647.925 526.855C669.078 518.671 690.119 510.201 711.043 501.448Z"/><path fill="#14223B" d="M491.069 428.596C502.119 428.251 515.861 428.283 526.818 429.026C527.258 438.778 526.984 450.303 526.989 460.228L526.966 516.776L527.023 554.508C527.04 560.678 527.322 570.095 526.797 575.967C514.785 576.052 502.773 576.034 490.761 575.914C489.821 543.055 490.686 506.955 490.678 473.855L490.558 445.965C490.538 441.786 490.291 432.37 491.069 428.596Z"/><path fill="#DF942D" d="M494.909 432.514C504.262 432.332 513.618 432.339 522.971 432.535L523.032 529.296L523.119 556.225C523.135 560.177 523.332 568.428 522.763 572.031C515.935 572.774 502.03 572.313 494.633 572.244C493.793 536.592 495.015 500.417 494.566 464.705C494.434 454.201 494.433 442.968 494.909 432.514Z"/><path fill="#14223B" d="M552.285 488.091C563.637 487.91 577.127 487.972 588.426 488.393L588.416 545.076C588.414 549.077 588.888 574.247 587.394 576.016C575.667 576.065 563.94 576.03 552.213 575.913C551.254 570.065 551.285 492.369 552.285 488.091Z"/><path fill="#DF942D" d="M556.576 491.724C564.559 491.374 576.702 491.411 584.595 491.716C584.839 518.619 584.773 545.524 584.398 572.426C575.024 572.411 564.79 572.591 555.494 572.098L555.507 519.89C555.509 515.523 554.905 494.364 556.576 491.724Z"/><path fill="#14223B" d="M433.035 488.711L465.986 489.05C466.194 509.156 466.238 529.264 466.12 549.37C466.113 553.653 466.374 571.958 465.572 575.407C464.261 576.337 463.985 575.998 462.032 576.041L429.481 575.969C428.904 558.309 429.404 539.383 429.246 521.632C429.185 514.81 428.878 495.94 429.676 490.075C430.972 488.71 430.74 489.133 433.035 488.711Z"/><path fill="#DF942D" d="M433.412 492.51C443.008 492.431 452.605 492.453 462.2 492.577C462.338 496.414 462.333 500.519 462.237 504.369C461.676 526.816 462.966 549.759 462.037 572.15C456.023 572.874 439.692 572.381 433.036 572.318C432.778 551.292 433.202 530.178 433.043 509.145C433.002 503.657 432.962 497.974 433.412 492.51Z"/><path fill="#14223B" d="M292.184 542.666C307.758 542.152 323.717 542.768 339.331 542.522C352.032 542.322 364.859 542.538 377.562 542.643C383.027 542.689 387.621 544.098 389.349 549.87C390.105 552.419 389.765 555.168 388.411 557.456C386.704 560.369 384.212 561.636 381.109 562.54L323.647 562.539C313.317 562.555 303.198 562.651 292.699 562.404C284.802 562.218 279.913 554.471 283.954 547.375C285.588 544.505 289.023 543.24 292.184 542.666Z"/><path fill="#14223B" d="M301.95 496.58C325.932 495.517 351.697 496.999 375.801 496.497C387.188 496.261 391.63 513.069 376.946 516.432C362.286 516.822 347.002 516.351 332.265 516.549C322.677 516.454 313.09 516.788 303.508 516.366C298.296 516.136 293.986 514.208 292.795 508.668C291.284 501.639 295.462 497.975 301.95 496.58Z"/></svg>