<?xml version="1.0" encoding="utf-8" ?><svg xmlns="http://www.w3.org/2000/svg" xmlns:xlink="http://www.w3.org/1999/xlink" width="1024" height="1024" viewBox="0 0 1024 1024"><path fill="white" d="M0 0L1024 0L1024 1024L0 1024L0 0Z"/><path fill="#12223B" d="M487.894 260.638L663.149 260.5L663.056 677.996L469.144 678.31C474.447 671.126 479.806 663.683 485.36 656.716C536.985 657.157 590.307 657.254 641.889 656.724L641.999 281.857L503.003 281.955C497.25 302.628 489.929 324.149 483.398 344.634L461.138 415.909C455.788 432.821 446.54 459.947 442.797 476.893C447.794 474.618 522.644 325.125 530.534 307.977L570.361 307.887C576.882 307.883 587.181 307.671 593.411 308.231C599.457 308.8 610.033 308.508 616.429 308.51C611.837 318.114 603.1 331.953 597.431 341.528C586.592 359.78 575.854 378.092 565.219 396.462C561.424 403.006 549.367 422.206 548.448 428.805C548.897 429.85 548.948 429.84 549.971 430.23C560.502 434.241 601.451 425.856 606.799 435.797C607.727 437.522 608.043 440.297 607.38 442.149C605.552 447.253 580.982 479.313 576.261 485.76C543.462 531.033 510.256 576.009 476.647 620.683L433.976 678.449C424.369 691.577 411.642 709.481 401.155 721.644L439.723 579.353C446.339 555.14 454.527 528.154 460.089 503.974C449.088 503.998 437.976 504.257 427.011 503.84C424.963 503.762 420.897 502.222 419.473 500.723C413.589 494.53 420.269 480.416 422.531 473.079L435.121 432.403L487.894 260.638Z"/><path fill="#DD942C" d="M530.534 307.977L570.361 307.887C576.882 307.883 587.181 307.671 593.411 308.231C574.444 341.022 554.113 373.193 535.319 406.11C529.445 416.399 522.721 426.229 517.378 436.783C515.172 441.14 515.501 448.13 520.46 450.288C531.909 455.269 563.364 448.927 573.516 453.029C574.234 455.241 563.934 468.478 562.174 470.878L541.176 499.245C522.542 524.818 503.737 550.266 484.764 575.589C476.996 586.114 459.8 610.596 451.518 618.879C453.774 607.918 457.499 594.995 460.404 584.044L475.984 525.31C477.924 517.954 484 496.489 484.459 490.077C483.249 487.414 481.503 483.437 478.501 482.788C468.191 480.561 452.327 482.029 441.362 481.609C441.754 480.299 442.333 478.113 442.797 476.893C447.794 474.618 522.644 325.125 530.534 307.977Z"/><path fill="#12223B" d="M363.176 260.696L459.278 260.837L452.242 282.04L384.307 281.935C384.068 293.046 384.351 305.211 384.342 316.424L384.338 390.501L384.432 604.25L384.416 678.61L363.097 678.578C363.416 663.642 363.122 647.54 363.137 632.509L363.05 529.715L363.176 260.696Z"/></svg>