<?xml version="1.0" encoding="utf-8" ?><svg xmlns="http://www.w3.org/2000/svg" xmlns:xlink="http://www.w3.org/1999/xlink" width="1024" height="1024" viewBox="0 0 1024 1024"><path fill="white" d="M0 0L1024 0L1024 1024L0 1024L0 0Z"/><path fill="#13223B" d="M448.462 200.209C455.802 199.933 463.139 200.854 470.184 202.935C487.977 208.252 502.927 220.421 511.745 236.764C524.809 217.855 533.543 208.097 556.721 201.998C588.077 193.747 629.02 214.814 636.788 247.031C642.278 248.574 647.515 249.542 653.073 251.354C668.292 256.286 681.356 266.294 690.081 279.704C702.166 297.95 703.496 315.703 699.29 336.69C706.001 342.102 712.349 346.869 717.664 353.742C729.577 369.158 734.832 388.697 732.26 408.009C729.092 432.874 717.124 444.703 698.599 459.148C699.246 461.802 699.751 464.487 700.113 467.194C705.972 508.729 680.752 542.161 639.119 547.504C635.599 557.259 630.24 566.248 623.335 573.984C610.757 587.936 595.009 595.021 576.3 595.985C544.013 596.361 528.86 584.213 512.026 558.435C502.202 573.672 493.876 583.777 476.741 590.967C459.959 597.979 441.07 597.989 424.28 590.994C404.587 582.723 394.77 568.22 386.895 549.186C354.838 544.391 328.367 523.761 324.141 490.264C322.792 479.574 323.914 470.748 325.884 460.242C315.595 452.119 308.832 446.783 301.982 435.193C292.325 418.621 289.524 398.931 294.174 380.322C298.794 362.415 309.797 346.87 325.757 337.378C314.99 298.681 335.092 260.82 374.557 250.043C378.693 248.914 382.808 248.164 387.014 247.353C394.687 219.816 420.834 202.482 448.462 200.209Z"/><path fill="#DD922B" d="M580.63 391.581C569.774 391.829 558.803 391.946 547.966 391.511C542.317 391.285 536.624 390.294 532.498 386.207C524.595 378.736 524.057 372.698 523.983 362.363L523.913 296.441C523.876 285.276 522.836 263.665 525.003 254.095C526.908 245.768 531.124 238.147 537.168 232.11C556.59 212.386 589.056 213.455 608.323 232.861C616.831 241.364 622.308 252.428 623.91 264.35C641.891 264.775 656.485 267.789 669.23 281.315C686.741 299.899 687.992 323.528 677.287 345.727C693.224 354.183 707.29 362.08 712.667 380.52C721.98 412.451 705.854 438.495 676.54 451.371C683.471 466.541 685.973 482.019 680.035 498.111C675.575 510.484 666.312 520.533 654.342 525.982C644.212 530.528 635.622 531.002 624.807 530.478C620.916 547.262 614.878 561.863 599.626 571.372C588.516 578.37 575.069 580.634 562.281 577.66C549.307 574.652 538.086 566.559 531.137 555.197C527.399 548.941 524.994 541.979 524.076 534.748C523.14 527.76 523.401 519.118 523.432 511.931L523.556 480.589C523.554 471.321 523.491 462.053 523.367 452.786C523.056 425.278 522.778 407.5 557.158 409.018C564.511 409.343 573.068 409.123 580.581 409.296C582.352 414.651 584.56 419.184 588.178 423.585C595.841 430.988 606.16 436.505 616.946 437.027C627.178 437.505 637.169 433.829 644.651 426.834C651.897 420.189 655.964 411.526 656.275 401.697C656.547 391.032 652.535 380.702 645.136 373.016C638.302 365.84 629.436 362.131 619.621 362.084C606.119 362.019 598.252 366.07 588.769 375.097C584.543 380.661 582.495 384.741 580.63 391.581Z"/><path fill="white" d="M580.63 391.581C569.774 391.829 558.803 391.946 547.966 391.511C542.317 391.285 536.624 390.294 532.498 386.207C524.595 378.736 524.057 372.698 523.983 362.363L523.913 296.441C523.876 285.276 522.836 263.665 525.003 254.095C526.908 245.768 531.124 238.147 537.168 232.11C556.59 212.386 589.056 213.455 608.323 232.861C616.831 241.364 622.308 252.428 623.91 264.35C641.891 264.775 656.485 267.789 669.23 281.315C686.741 299.899 687.992 323.528 677.287 345.727C693.224 354.183 707.29 362.08 712.667 380.52C721.98 412.451 705.854 438.495 676.54 451.371C683.471 466.541 685.973 482.019 680.035 498.111C675.575 510.484 666.312 520.533 654.342 525.982C644.212 530.528 635.622 531.002 624.807 530.478C620.916 547.262 614.878 561.863 599.626 571.372C588.516 578.37 575.069 580.634 562.281 577.66C549.307 574.652 538.086 566.559 531.137 555.197C527.399 548.941 524.994 541.979 524.076 534.748C523.14 527.76 523.401 519.118 523.432 511.931L523.556 480.589C523.554 471.321 523.491 462.053 523.367 452.786C523.056 425.278 522.778 407.5 557.158 409.018C564.511 409.343 573.068 409.123 580.581 409.296C582.352 414.651 584.56 419.184 588.178 423.585C580.477 431.101 561.287 439.752 552.463 447.275C547.174 451.46 544.615 459.02 544.473 465.721C544.122 482.249 544.209 498.909 544.005 515.457C543.874 526.078 543.697 536.723 551.297 545.16C556.615 551.05 564.123 554.49 572.056 554.673C589.536 555.193 603.215 542.3 605.187 525.268C605.627 521.468 605.659 517.71 605.739 513.892L609.128 513.934C624.647 514.106 636.753 514.963 648.572 503.23C655.502 496.479 659.362 487.182 659.251 477.508C659.133 459.77 647.429 448.704 635.518 437.113C656.566 435.787 687.137 427.894 690.328 402.767C691.481 394.052 689.091 385.239 683.695 378.299C671.901 363.276 653.778 363.872 636.152 361.799C647.044 349.34 659.683 337.228 659.64 319.258C659.607 305.171 650.64 294.136 638.256 288.312C626.918 282.98 615.761 283.87 603.552 284C603.558 270.235 601.662 256.238 589.946 247.355C583.442 242.512 575.271 240.471 567.253 241.687C547.41 244.608 544.151 260.409 545.412 276.638C545.752 281.015 545.351 287.187 545.327 291.755L545.141 320.124C545.091 326.916 544.771 333.789 545.824 340.509C547.455 350.919 556.842 355.938 565.012 360.87C572.884 365.622 581.037 370.072 588.769 375.097C584.543 380.661 582.495 384.741 580.63 391.581Z"/><path fill="#DD922B" d="M400.301 264.442C403.4 252.175 406.392 242.379 415.252 233.03C445.434 201.183 500.922 221.305 500.618 266.317C500.626 295.57 500.47 324.813 500.587 354.068C500.651 370.25 500.391 389.508 479.561 391.287C467.639 392.305 455.849 391.859 443.863 391.751C441.723 384.497 439.981 381.303 435.626 375.215C430.872 370.556 427.43 366.892 421.125 364.427C406.401 358.67 389.955 361.754 379.021 373.303C372.011 380.586 368.212 390.375 368.474 400.481C369.654 435.595 412.601 449.953 434.373 425.288L434.778 424.821C438.505 419.997 441.482 414.638 443.609 408.925C461.488 408.652 497.556 403.449 500.011 429.821C501.276 443.41 500.101 459.531 500.107 473.455C500.101 484.78 500.162 496.105 500.288 507.43C500.513 526.097 502.749 544.086 490.159 559.453C481.465 570.148 468.809 576.865 455.079 578.073C425.969 580.666 403.776 559.87 401.362 531.295C392.208 531.718 384.165 531.279 375.365 528.365C362.41 524.034 351.753 514.655 345.811 502.355C336.697 483.825 341.783 469.511 347.874 451.342C346.939 451.024 346.013 450.679 345.098 450.308C331.125 444.858 319.95 433.988 314.115 420.171C302.871 393.594 312.975 363.466 338.765 349.994C342.04 348.283 345.321 346.926 348.724 345.505C343.486 337.784 340.331 326.325 340.251 317.026C340.152 303.217 345.666 289.959 355.529 280.293C368.449 267.418 382.614 264.446 400.301 264.442Z"/><path fill="white" d="M400.301 264.442C403.4 252.175 406.392 242.379 415.252 233.03C445.434 201.183 500.922 221.305 500.618 266.317C500.626 295.57 500.47 324.813 500.587 354.068C500.651 370.25 500.391 389.508 479.561 391.287C467.639 392.305 455.849 391.859 443.863 391.751C441.723 384.497 439.981 381.303 435.626 375.215C443.419 369.231 454.531 364.709 462.733 358.751C469.133 354.101 477.133 350.56 478.098 341.269C478.809 329.665 479.214 316.877 479.013 305.294C478.772 291.496 479.883 274.93 478.279 261.454C475.834 240.901 446.709 235.777 432.521 247.855C421.347 257.367 419.873 270.202 419.963 283.867C396.697 282.808 366.747 286.598 364.385 316.353C362.913 334.905 377.052 346.545 384.567 361.383C359.563 363.69 331.548 370.93 333.966 402.873C334.656 411.997 339.603 419.586 346.408 425.237C358.02 435.395 370.268 435.121 381.951 440.404L381.616 441.073C378.953 446.319 374.908 450.608 372.04 455.507C361.315 473.828 363.78 499.279 384.435 509.304C396.065 514.949 406.249 514.019 418.571 514.02C418.432 525.861 418.844 536.663 427.669 545.829C433.128 551.511 440.673 554.715 448.552 554.699C456.858 554.754 465.301 551.701 471.154 545.705C474.396 542.425 476.651 538.301 477.663 533.802C479.296 526.594 478.735 517.374 478.723 509.906C478.599 498.716 478.435 487.573 478.702 476.383C478.934 466.667 480.327 455.34 472.049 448.341C460.803 438.832 447.155 432.59 434.778 424.821C438.505 419.997 441.482 414.638 443.609 408.925C461.488 408.652 497.556 403.449 500.011 429.821C501.276 443.41 500.101 459.531 500.107 473.455C500.101 484.78 500.162 496.105 500.288 507.43C500.513 526.097 502.749 544.086 490.159 559.453C481.465 570.148 468.809 576.865 455.079 578.073C425.969 580.666 403.776 559.87 401.362 531.295C392.208 531.718 384.165 531.279 375.365 528.365C362.41 524.034 351.753 514.655 345.811 502.355C336.697 483.825 341.783 469.511 347.874 451.342C346.939 451.024 346.013 450.679 345.098 450.308C331.125 444.858 319.95 433.988 314.115 420.171C302.871 393.594 312.975 363.466 338.765 349.994C342.04 348.283 345.321 346.926 348.724 345.505C343.486 337.784 340.331 326.325 340.251 317.026C340.152 303.217 345.666 289.959 355.529 280.293C368.449 267.418 382.614 264.446 400.301 264.442Z"/><path fill="#DD922B" d="M402.619 378.294C414.166 376.303 425.137 384.059 427.112 395.608C429.086 407.158 421.314 418.118 409.762 420.076C398.233 422.03 387.3 414.277 385.329 402.751C383.359 391.225 391.096 380.28 402.619 378.294Z"/><path fill="#DD922B" d="M616.677 378.71C628.187 377.892 638.188 386.544 639.035 398.052C639.882 409.56 631.254 419.582 619.748 420.457C608.202 421.335 598.137 412.671 597.287 401.123C596.438 389.574 605.127 379.531 616.677 378.71Z"/></svg>