<?xml version="1.0" encoding="utf-8" ?><svg xmlns="http://www.w3.org/2000/svg" xmlns:xlink="http://www.w3.org/1999/xlink" width="1024" height="1024" viewBox="0 0 1024 1024"><path fill="white" d="M0 0L1024 0L1024 1024L0 1024L0 0Z"/><path fill="#13223D" d="M510.683 277.949C513.015 278.495 529.556 286.37 532.564 287.776C550.697 296.399 568.874 304.929 587.095 313.363L587.057 353.536C595.26 357.508 601.642 360.754 609.385 365.72C644.421 387.906 669.101 423.211 677.904 463.735C697.16 463.839 705.19 458.201 715.763 442.463C715.652 471.254 707.244 485.054 680.128 495.591C680.023 497.569 679.884 499.545 679.711 501.518C676.232 543.94 655.987 573.919 624.583 600.598L624.547 689.971L523.058 690.004L523.049 638.259C518.554 638.507 500.937 637.963 498.369 638.757L498.099 639.875L498.041 690.022L395.461 689.965L395.412 601.374C371.371 580.758 358.901 565.844 347.869 535.158C324.835 535.053 303.278 533.41 302.024 502.801C301.172 481.989 300.847 459.487 303.272 438.886C303.714 435.135 307.999 429.007 310.584 426.261C319.923 416.698 329.686 416.861 341.852 416.899C347.721 416.959 353.591 416.9 359.458 416.722C367.125 404.297 373.341 396.103 383.693 385.628C380.813 362.647 372.491 344.789 360.549 325.186C389.84 323.126 406.92 322.902 435.076 334.246C435.468 327.924 435.464 319.736 435.201 313.4C441.511 310.055 450.843 306.096 457.499 302.924C475.137 294.41 492.866 286.084 510.683 277.949Z"/><path fill="white" d="M509.996 302.454C513.237 302.489 557.535 324.16 564.742 327.572L564.774 368.265C639.422 394.725 685.352 476.128 641.465 549.725C631.568 566.322 618.022 578.365 602.529 589.531C602.779 615.724 602.845 641.919 602.726 668.114L545.092 668.221L545 612.713C519.704 618.531 501.622 619.012 476.189 612.672C475.748 623.327 476.021 636.323 475.999 647.125L475.924 667.97L417.477 668.025L417.412 590.552C389.314 570.219 372.307 547.44 363.863 513.421C352.55 513.049 321.56 518.315 323.5 501.685C325.267 486.533 321.117 460.475 323.695 446.441C324.075 444.428 325.061 442.58 326.522 441.143C327.762 439.928 330.538 438.898 332.105 438.81C344.864 438.096 359.763 438.514 372.547 438.594C382.712 419.822 390.039 409.148 406.513 394.728C404.949 373.227 403.565 366.462 396.12 346.344C420.066 348.443 431.375 355.095 447.636 371.909C450.769 370.725 454.309 369.6 457.507 368.511L457.513 327.454C473.009 321.08 494.461 309.951 509.996 302.454Z"/><path fill="#DB902B" d="M505.549 429.125C544.542 425.965 578.754 454.918 582.087 493.896C585.419 532.874 556.619 567.214 517.656 570.72C478.448 574.248 443.844 545.226 440.49 506.003C437.137 466.779 466.311 432.304 505.549 429.125Z"/><path fill="white" d="M494.695 482.21C502.679 481.926 513.88 481.998 521.781 482.336C521.595 498.588 521.544 514.842 521.628 531.095C523.92 531.033 525.866 531.24 528.139 531.429C528.174 534.616 528.124 537.876 528.109 541.07L521.25 541.07L495.396 541.028C495.31 537.846 495.374 534.441 495.384 531.242L501.389 531.348C500.914 519.013 501.251 505.39 501.118 492.89L494.918 492.948L494.695 482.21Z"/><path fill="white" d="M501.499 460.015L521.293 460.115L521.201 473.438C515.17 473.689 507.73 473.51 501.584 473.537L501.499 460.015Z"/><path fill="#DB902B" d="M497.392 334.021L498.05 334.141C498.689 335.26 498.449 401.566 498.454 408.441C489.168 408.267 479.881 408.222 470.594 408.308L469.735 408.181C469.515 407.956 469.295 407.731 469.076 407.506C468.88 394.418 468.996 355.022 469.003 344.77C478.439 341.115 487.902 337.532 497.392 334.021Z"/><path fill="#DB902B" d="M523.936 333.731C532.707 336.71 544.432 341.302 552.98 344.976L553 408.277L524.042 408.098C523.654 383.624 523.961 358.271 523.936 333.731Z"/><path fill="#13223D" d="M405.69 420.071C412.283 418.596 418.814 422.779 420.232 429.384C421.65 435.99 417.41 442.485 410.793 443.845C404.256 445.189 397.857 441.013 396.457 434.488C395.056 427.963 399.177 421.528 405.69 420.071Z"/><path fill="#DB902B" d="M579.682 411.827C585.136 410.582 590.568 413.983 591.832 419.432C593.095 424.881 589.713 430.325 584.268 431.606C578.797 432.894 573.322 429.492 572.053 424.017C570.784 418.543 574.204 413.078 579.682 411.827Z"/><path fill="#DB902B" d="M437.676 411.785C443.147 410.498 448.622 413.901 449.89 419.376C451.158 424.852 447.736 430.315 442.256 431.564C436.804 432.806 431.373 429.405 430.112 423.957C428.85 418.509 432.232 413.066 437.676 411.785Z"/></svg>